<?xml version="1.0" standalone="no"?>
<!DOCTYPE svg PUBLIC "-//W3C//DTD SVG 20010904//EN"
 "http://www.w3.org/TR/2001/REC-SVG-20010904/DTD/svg10.dtd">
<svg version="1.0" xmlns="http://www.w3.org/2000/svg"
 width="697.000000pt" height="207.000000pt" viewBox="0 0 697.000000 207.000000"
 preserveAspectRatio="xMidYMid meet">

<g transform="translate(0.000000,207.000000) scale(0.100000,-0.100000)"
fill="#000000" stroke="none">
<path d="M690 2035 c-17 -44 -22 -120 -11 -161 21 -79 83 -115 240 -139 149
-22 241 -65 281 -130 28 -45 25 -51 -11 -20 -59 49 -121 72 -249 91 -80 12
-148 43 -206 97 l-57 52 5 -52 c10 -101 55 -133 223 -157 165 -23 267 -66 306
-129 29 -48 23 -53 -18 -17 -20 18 -55 41 -78 51 -43 19 -147 39 -205 39 -58
0 -106 19 -161 62 l-52 41 7 -34 c15 -78 71 -113 196 -124 101 -9 175 -23 225
-45 45 -19 115 -76 115 -93 0 -5 -8 -3 -17 5 -52 45 -127 71 -234 79 -78 5
-125 14 -170 33 -35 14 -65 23 -68 20 -11 -11 38 -61 82 -83 38 -19 71 -25
171 -31 112 -6 129 -10 177 -37 72 -41 74 -59 3 -26 -47 21 -79 27 -178 34
-67 4 -134 12 -149 18 -42 17 -52 13 -31 -10 35 -39 75 -52 194 -60 126 -9
205 -28 242 -59 l23 -20 -43 15 c-23 8 -95 17 -160 21 -64 4 -134 12 -154 19
-43 14 -48 5 -16 -25 33 -30 81 -40 206 -40 74 0 124 -5 146 -14 40 -17 61
-42 26 -31 -20 6 -300 14 -300 8 0 -2 12 -11 27 -20 23 -15 50 -18 170 -18
108 0 145 -3 155 -14 11 -11 8 -13 -21 -7 -18 3 -72 3 -120 -1 -81 -6 -84 -7
-56 -19 18 -8 74 -13 141 -14 103 0 117 -2 177 -30 36 -17 82 -33 103 -36 33
-4 31 -2 -13 11 -112 32 -175 80 -220 168 -52 104 -64 155 -70 297 -6 150 -12
169 -71 222 -46 41 -100 61 -232 83 -118 20 -170 48 -199 108 -12 24 -21 58
-21 76 0 36 -15 71 -31 71 -5 0 -14 -11 -19 -25z"/>
<path d="M2580 2034 c-6 -14 -10 -39 -10 -55 0 -48 -36 -106 -83 -133 -27 -16
-77 -31 -137 -41 -134 -23 -182 -40 -234 -86 -55 -48 -66 -82 -66 -200 0 -105
-12 -173 -46 -259 -50 -128 -116 -188 -245 -225 -44 -13 -47 -15 -15 -11 21 3
67 19 103 36 60 28 74 30 177 30 67 1 123 6 141 14 28 12 25 13 -58 19 -48 4
-99 4 -112 1 -14 -4 -25 -2 -25 4 0 16 93 25 180 17 80 -7 138 3 158 28 8 9
-21 12 -127 11 -76 -1 -147 -5 -159 -8 -30 -10 -28 0 4 21 21 14 59 19 173 23
154 7 199 19 221 60 10 18 9 19 -27 6 -21 -7 -93 -16 -160 -20 -67 -3 -135
-11 -153 -17 -49 -17 -48 -1 1 20 51 23 151 41 227 41 78 0 136 18 168 51 29
31 23 36 -23 18 -15 -6 -82 -14 -149 -18 -99 -7 -131 -13 -178 -34 -71 -33
-69 -15 3 26 48 27 65 31 174 37 76 5 138 14 164 25 40 16 110 81 99 92 -2 3
-35 -7 -73 -22 -50 -21 -94 -30 -168 -35 -103 -7 -162 -25 -228 -72 l-32 -23
16 25 c19 29 109 86 159 100 19 6 82 15 140 21 58 6 124 19 147 29 46 20 83
69 83 109 0 23 0 23 -35 -8 -56 -49 -90 -62 -188 -72 -151 -15 -207 -33 -271
-89 -39 -35 -46 -30 -18 13 46 69 137 108 304 132 62 9 129 24 148 33 48 23
80 74 80 128 l0 44 -41 -40 c-56 -54 -131 -88 -230 -106 -115 -20 -172 -40
-225 -80 -24 -19 -44 -30 -44 -25 0 10 38 60 60 79 41 35 141 72 240 87 122
19 175 40 212 84 33 38 43 85 34 153 -12 85 -37 113 -56 62z"/>
<path d="M1620 1923 c-36 -57 -39 -104 -8 -133 12 -11 31 -20 43 -20 31 0 65
41 64 76 -1 29 -1 28 -9 -6 -8 -33 -32 -60 -55 -60 -26 0 -55 32 -55 62 0 27
43 118 55 118 2 0 15 -19 29 -42 14 -24 26 -38 26 -33 0 12 -48 85 -56 85 -2
0 -18 -21 -34 -47z"/>
<path d="M3495 1908 c-15 -65 -165 -815 -165 -825 0 -16 156 -18 165 -3 4 6
31 135 60 287 30 151 56 277 58 279 2 2 23 -47 47 -109 23 -61 74 -192 112
-290 l70 -177 87 0 88 0 11 53 c22 101 152 782 152 795 0 8 -23 12 -80 12 -74
0 -80 -1 -85 -22 -3 -13 -27 -142 -55 -287 -27 -145 -51 -265 -53 -267 -2 -2
-55 126 -119 284 l-115 287 -86 3 c-83 3 -87 2 -92 -20z"/>
<path d="M6255 1908 c-2 -7 -34 -166 -70 -353 -36 -187 -70 -362 -76 -390 -5
-27 -12 -60 -15 -72 -4 -22 -2 -23 71 -23 41 0 75 2 75 5 0 5 112 545 150 722
28 132 32 123 -55 123 -52 0 -77 -4 -80 -12z"/>
<path d="M1633 1875 c-13 -28 -14 -37 -3 -50 32 -39 66 1 45 53 -8 17 -17 32
-20 32 -3 0 -13 -16 -22 -35z"/>
<path d="M1882 1850 c0 -14 2 -19 5 -12 2 6 2 18 0 25 -3 6 -5 1 -5 -13z"/>
<path d="M1451 1857 c2 -1 13 -9 24 -17 19 -14 19 -14 6 3 -7 9 -18 17 -24 17
-6 0 -8 -1 -6 -3z"/>
<path d="M1825 1850 c-3 -6 1 -7 9 -4 18 7 21 14 7 14 -6 0 -13 -4 -16 -10z"/>
<path d="M1790 1819 c-7 -11 -10 -23 -7 -25 2 -2 9 7 15 21 14 30 7 33 -8 4z"/>
<path d="M1430 1812 c0 -10 6 -27 14 -38 14 -18 16 -18 32 -2 17 17 17 18 -1
38 -23 25 -45 26 -45 2z"/>
<path d="M1826 1817 c-23 -17 -17 -52 9 -52 15 0 21 8 23 33 4 35 -4 39 -32
19z"/>
<path d="M1508 1795 c8 -46 -43 -74 -78 -42 -12 10 -12 9 -1 -5 17 -23 54 -23
74 0 18 20 23 57 8 66 -4 3 -6 -6 -3 -19z"/>
<path d="M1875 1779 c-8 -29 -15 -35 -43 -37 -26 -3 -34 1 -41 20 -6 14 -10
17 -10 8 -2 -44 68 -55 95 -15 8 13 14 32 12 41 -2 11 -7 4 -13 -17z"/>
<path d="M1283 1730 c0 -25 2 -35 4 -22 2 12 2 32 0 45 -2 12 -4 2 -4 -23z"/>
<path d="M2012 1740 c0 -14 2 -19 5 -12 2 6 2 18 0 25 -3 6 -5 1 -5 -13z"/>
<path d="M1373 1724 c18 -22 21 -42 11 -68 -7 -19 -55 -21 -72 -4 -8 8 -12 8
-12 1 0 -28 75 -31 90 -4 16 31 12 56 -12 77 -23 19 -23 19 -5 -2z"/>
<path d="M1915 1720 c-10 -11 -16 -22 -14 -24 2 -2 12 7 22 20 22 29 17 32 -8
4z"/>
<path d="M1310 1712 c0 -28 25 -56 44 -49 31 12 16 45 -26 60 -13 5 -18 1 -18
-11z"/>
<path d="M1602 1709 c-66 -9 -123 -46 -146 -94 -25 -53 -7 -70 69 -67 65 3 89
-8 110 -48 23 -45 18 -54 -16 -26 -33 28 -48 31 -96 17 -26 -8 -37 -6 -58 11
-14 10 -25 24 -25 30 0 18 -42 48 -66 48 -44 0 -53 -32 -51 -178 2 -86 7 -136
14 -140 6 -4 15 -25 19 -47 9 -51 57 -100 112 -115 24 -6 47 -8 52 -5 5 3 22
-1 37 -8 48 -25 108 -30 165 -14 29 9 76 19 103 23 64 9 120 60 130 119 4 22
12 46 18 53 6 7 11 75 13 150 3 155 -5 182 -55 182 -23 0 -31 -7 -46 -40 -28
-63 -46 -73 -108 -66 -45 6 -57 4 -79 -14 -35 -27 -39 -25 -26 11 15 44 46 60
112 58 75 -3 95 14 72 59 -41 79 -138 117 -254 101z m81 -59 c4 -16 2 -18 -13
-10 -13 7 -21 7 -25 0 -10 -17 -25 -11 -18 8 17 46 44 47 56 2z m-4 -43 c9
-23 -5 -77 -20 -77 -5 0 -16 14 -24 31 -16 30 -16 30 5 19 17 -9 25 -9 34 1 8
9 7 11 -6 6 -24 -8 -44 18 -28 38 15 18 28 11 39 -18z m190 -129 c-11 -42 -62
-88 -95 -88 -28 0 -94 35 -94 50 0 10 49 50 62 50 4 0 1 -11 -7 -24 -15 -23
-15 -26 4 -45 25 -25 35 -26 56 -5 10 11 14 25 11 40 -5 17 -3 22 7 18 8 -3
25 4 38 15 13 11 25 20 26 21 1 0 -2 -15 -8 -32z m-368 -2 c9 5 10 1 7 -14 -9
-32 25 -71 48 -56 33 20 40 41 20 63 -23 25 -16 26 24 6 39 -20 38 -41 -2 -65
-58 -35 -112 -20 -143 40 -22 42 -19 53 10 34 13 -8 30 -12 36 -8z m79 -29 c0
-7 -5 -18 -12 -25 -18 -18 -36 -15 -48 7 -7 15 -6 23 6 35 12 12 20 13 35 6
10 -6 19 -16 19 -23z m214 10 c13 -21 -13 -51 -36 -42 -24 10 -29 32 -11 50
18 18 32 16 47 -8z m13 -130 c6 -4 21 -36 33 -72 17 -50 19 -68 10 -84 -12
-24 -21 -25 -125 -10 -55 7 -97 7 -151 -1 -119 -18 -138 -2 -104 88 36 95 21
88 182 87 79 0 148 -4 155 -8z"/>
<path d="M1540 1439 c0 -5 5 -7 10 -4 6 3 10 8 10 11 0 2 -4 4 -10 4 -5 0 -10
-5 -10 -11z"/>
<path d="M1531 1263 c-12 -31 -19 -58 -16 -61 10 -10 285 -7 285 3 0 6 -9 33
-19 60 l-19 50 -105 2 -104 3 -22 -57z m219 38 c0 -5 -7 -14 -15 -21 -10 -9
-15 -9 -15 -1 0 14 -116 15 -125 1 -7 -12 -35 5 -35 21 0 4 43 8 95 8 52 0 95
-4 95 -8z m-92 -63 c58 -2 72 0 72 12 0 10 6 9 22 -8 12 -12 19 -24 16 -27 -3
-3 -56 -4 -117 -3 l-111 3 16 24 c10 14 19 19 23 12 4 -6 39 -12 79 -13z"/>
<path d="M1942 1708 c-21 -21 -15 -50 10 -46 28 4 46 58 19 58 -9 0 -22 -5
-29 -12z"/>
<path d="M5704 1692 c-62 -22 -101 -51 -136 -104 -46 -67 -41 -74 51 -70 71 3
79 6 89 27 35 76 199 76 218 -1 13 -53 -35 -77 -187 -93 -154 -17 -222 -51
-256 -129 -20 -48 -19 -144 3 -181 27 -46 81 -71 152 -71 66 0 161 30 184 57
11 14 14 12 18 -18 l5 -34 80 0 80 0 3 40 c1 22 19 118 38 214 51 245 43 295
-56 350 -59 33 -210 40 -286 13z m183 -349 c-14 -82 -94 -156 -168 -156 -81 0
-120 85 -63 138 28 26 119 49 208 54 28 1 28 0 23 -36z"/>
<path d="M5115 1681 c-22 -10 -49 -28 -59 -40 -26 -29 -37 -26 -29 9 l6 30
-86 0 -85 0 -11 -62 c-6 -35 -80 -408 -164 -830 l-153 -768 87 0 c82 0 87 1
92 23 6 23 11 50 133 672 41 215 77 391 78 392 1 1 28 -11 60 -27 48 -24 71
-30 125 -30 121 0 215 65 275 190 29 62 31 71 31 185 0 98 -3 126 -19 155 -23
45 -64 88 -98 106 -38 20 -135 17 -183 -5z m70 -125 c48 -20 70 -66 69 -146
-1 -124 -80 -240 -164 -240 -36 0 -91 32 -112 64 -28 46 -21 143 15 218 30 61
69 96 121 108 17 5 32 8 34 9 1 1 18 -5 37 -13z"/>
<path d="M2001 1678 c-1 -9 -11 -24 -23 -32 -12 -9 -18 -16 -12 -16 17 0 47
38 41 52 -4 9 -6 7 -6 -4z"/>
<path d="M4380 1677 c-139 -39 -236 -171 -247 -335 -7 -100 12 -164 65 -214
58 -56 97 -71 193 -76 144 -7 231 30 298 128 45 66 43 70 -44 70 -68 0 -76 -2
-91 -25 -18 -28 -89 -65 -124 -65 -38 0 -104 37 -123 69 -9 16 -17 45 -17 65
l0 36 234 0 235 0 7 58 c15 120 -31 225 -118 270 -58 30 -196 40 -268 19z
m185 -130 c18 -15 28 -36 32 -65 l6 -42 -137 0 -136 0 15 36 c8 20 15 38 15
40 0 1 19 14 43 28 56 34 125 35 162 3z"/>
<path d="M1900 1661 c0 -10 29 -36 34 -30 1 2 -6 12 -16 22 -10 9 -18 13 -18
8z"/>
<path d="M1638 1013 c12 -2 30 -2 40 0 9 3 -1 5 -23 4 -22 0 -30 -2 -17 -4z"/>
<path d="M190 966 c0 -6 -58 -295 -129 -641 -33 -159 -57 -293 -55 -297 3 -4
590 -8 1304 -8 l1300 0 13 22 c28 45 496 894 502 911 7 16 -70 17 -1464 17
-809 0 -1471 -2 -1471 -4z"/>
<path d="M3517 873 c-11 -19 -417 -773 -436 -811 l-21 -42 100 0 100 0 44 95
45 95 149 0 148 0 11 -90 c6 -50 13 -93 15 -96 3 -3 43 -4 89 -2 l84 3 -60
428 -60 427 -102 0 c-56 0 -104 -3 -106 -7z m93 -354 c11 -89 18 -164 16 -166
-2 -2 -49 -2 -104 -1 l-101 3 81 167 c45 93 83 166 85 164 2 -2 13 -77 23
-167z"/>
<path d="M4041 830 c-19 -88 -22 -85 68 -82 l80 3 10 50 c18 82 20 79 -68 79
l-79 0 -11 -50z"/>
<path d="M4951 823 c-6 -31 -11 -61 -11 -67 0 -7 27 -10 80 -8 88 4 79 -5 99
90 l9 42 -83 0 -82 0 -12 -57z"/>
<path d="M6606 654 c-58 -21 -106 -62 -127 -108 -45 -99 -15 -150 128 -221
115 -57 143 -79 143 -110 0 -51 -92 -96 -156 -75 -38 13 -54 35 -54 74 0 26
-1 26 -75 26 l-75 0 0 -44 c0 -106 105 -176 264 -176 152 0 266 95 266 222 0
73 -39 116 -157 175 -70 34 -102 56 -113 76 -14 27 -14 29 13 53 30 26 83 32
118 14 10 -6 26 -24 34 -40 15 -29 18 -30 85 -30 78 0 80 2 51 66 -34 74 -120
115 -240 113 -36 0 -84 -7 -105 -15z"/>
<path d="M5441 630 c-23 -11 -61 -34 -83 -51 l-39 -31 6 28 c4 16 8 35 11 42
3 10 -15 12 -78 10 l-82 -3 -58 -285 c-31 -157 -57 -293 -57 -302 -1 -16 9
-18 77 -18 l77 0 38 185 c40 202 61 255 110 285 32 20 102 27 123 12 18 -11
34 -48 34 -76 0 -14 -16 -106 -35 -203 -19 -98 -35 -183 -35 -190 0 -9 21 -13
75 -13 69 0 75 2 79 23 35 158 76 392 76 427 0 69 -35 130 -90 158 -54 27 -92
28 -149 2z"/>
<path d="M5975 636 c-67 -21 -100 -43 -148 -96 -66 -74 -90 -143 -91 -260 -1
-84 2 -100 24 -140 14 -24 44 -59 67 -76 98 -74 295 -68 401 13 31 24 92 106
92 125 0 4 -34 8 -76 8 -69 0 -78 -2 -96 -25 -80 -102 -265 -48 -256 75 l3 35
232 3 232 2 7 46 c21 142 -40 254 -158 289 -62 18 -177 19 -233 1z m182 -116
c31 -18 52 -69 41 -100 -2 -7 -47 -12 -131 -13 -123 -2 -127 -1 -127 19 0 49
84 113 150 114 19 0 49 -9 67 -20z"/>
<path d="M3995 608 c-10 -41 -115 -572 -115 -580 0 -4 36 -8 80 -8 44 0 80 4
80 8 0 4 27 136 60 292 33 157 60 291 60 298 0 8 -23 12 -80 12 -74 0 -80 -1
-85 -22z"/>
<path d="M4260 625 c0 -9 -120 -579 -125 -592 -3 -10 17 -13 79 -13 l84 0 20
87 c11 49 30 132 42 187 29 130 52 158 137 164 l60 4 17 74 c9 41 16 79 16 84
0 13 -71 13 -106 0 -14 -6 -39 -24 -56 -42 l-29 -31 7 42 7 41 -77 0 c-42 0
-76 -2 -76 -5z"/>
<path d="M4910 627 c0 -2 -27 -138 -60 -302 -33 -164 -60 -300 -60 -302 0 -2
36 -3 79 -3 l80 0 11 52 c6 29 34 167 63 306 l54 252 -84 0 c-46 0 -83 -1 -83
-3z"/>
</g>
</svg>
