<?xml version="1.0" encoding="iso-8859-1"?>
<!-- Generator: Adobe Illustrator 27.0.0, SVG Export Plug-In . SVG Version: 6.00 Build 0)  -->
<svg version="1.1" id="Layer_1" xmlns="http://www.w3.org/2000/svg" xmlns:xlink="http://www.w3.org/1999/xlink" x="0px" y="0px"
	 viewBox="0 0 500 500" style="enable-background:new 0 0 500 500;" xml:space="preserve">
<g id="watermark_1_">
	<g>
		<g id="watermark" style="opacity:0.61;">
			<g>
				<g>
					<g>
						<g>
							<polygon style="fill:#FFFFFF;" points="213.765,461.172 208.204,474.017 205.268,474.017 199.726,461.172 202.938,461.172 
								206.846,470.347 210.81,461.172 							"/>
						</g>
						<g>
							<path style="fill:#FFFFFF;" d="M223.507,469.741h-7.469c0.275,1.23,1.321,1.982,2.826,1.982c1.046,0,1.798-0.312,2.477-0.954
								l1.523,1.651c-0.917,1.046-2.294,1.597-4.074,1.597c-3.413,0-5.634-2.147-5.634-5.083c0-2.954,2.257-5.083,5.267-5.083
								c2.899,0,5.138,1.945,5.138,5.12C223.562,469.191,223.526,469.503,223.507,469.741 M216.002,468.071h4.863
								c-0.202-1.248-1.138-2.055-2.422-2.055C217.139,466.016,216.204,466.805,216.002,468.071"/>
						</g>
						<g>
							<path style="fill:#FFFFFF;" d="M224.735,468.934c0-2.973,2.294-5.083,5.505-5.083c2.074,0,3.707,0.899,4.423,2.514
								l-2.22,1.193c-0.532-0.936-1.321-1.358-2.221-1.358c-1.45,0-2.587,1.009-2.587,2.734c0,1.725,1.138,2.734,2.587,2.734
								c0.899,0,1.688-0.404,2.221-1.358l2.22,1.211c-0.716,1.578-2.349,2.495-4.423,2.495
								C227.029,474.017,224.735,471.907,224.735,468.934"/>
						</g>
						<g>
							<path style="fill:#FFFFFF;" d="M242.828,473.393c-0.587,0.422-1.45,0.624-2.331,0.624c-2.33,0-3.688-1.193-3.688-3.542
								v-4.055h-1.523v-2.202h1.523v-2.404h2.863v2.404h2.459v2.202h-2.459v4.019c0,0.844,0.458,1.303,1.229,1.303
								c0.422,0,0.844-0.128,1.156-0.367L242.828,473.393z"/>
						</g>
					</g>
					<g>
						<path style="fill:#FFFFFF;" d="M262.474,463.997v2.643c-0.238-0.018-0.422-0.037-0.642-0.037
							c-1.578,0-2.624,0.862-2.624,2.753v4.661h-2.863v-9.873h2.734v1.303C259.776,464.493,260.951,463.997,262.474,463.997"/>
					</g>
					<g>
						<path style="fill:#FFFFFF;" d="M263.299,472.53l1.009-2.239c1.083,0.789,2.697,1.339,4.239,1.339
							c1.762,0,2.477-0.587,2.477-1.376c0-2.404-7.469-0.752-7.469-5.524c0-2.184,1.762-4,5.413-4c1.615,0,3.267,0.385,4.459,1.138
							l-0.918,2.257c-1.193-0.679-2.422-1.009-3.56-1.009c-1.761,0-2.44,0.66-2.44,1.468c0,2.367,7.468,0.734,7.468,5.45
							c0,2.147-1.78,3.982-5.45,3.982C266.492,474.017,264.437,473.411,263.299,472.53"/>
					</g>
					<g>
						<path style="fill:#FFFFFF;" d="M285.428,469.741h-7.469c0.275,1.23,1.321,1.982,2.826,1.982c1.046,0,1.798-0.312,2.477-0.954
							l1.523,1.651c-0.918,1.046-2.294,1.597-4.074,1.597c-3.413,0-5.634-2.147-5.634-5.083c0-2.954,2.257-5.083,5.267-5.083
							c2.9,0,5.138,1.945,5.138,5.12C285.484,469.191,285.447,469.503,285.428,469.741 M277.923,468.071h4.863
							c-0.202-1.248-1.138-2.055-2.422-2.055C279.061,466.016,278.125,466.805,277.923,468.071"/>
					</g>
					<g>
						<path style="fill:#FFFFFF;" d="M297.007,469.741h-7.469c0.275,1.23,1.321,1.982,2.826,1.982c1.046,0,1.798-0.312,2.477-0.954
							l1.523,1.651c-0.918,1.046-2.294,1.597-4.074,1.597c-3.413,0-5.634-2.147-5.634-5.083c0-2.954,2.257-5.083,5.267-5.083
							c2.899,0,5.138,1.945,5.138,5.12C297.062,469.191,297.025,469.503,297.007,469.741 M289.501,468.071h4.863
							c-0.202-1.248-1.138-2.055-2.422-2.055C290.639,466.016,289.703,466.805,289.501,468.071"/>
					</g>
					<g>
						<polygon style="fill:#FFFFFF;" points="303.208,470.145 301.831,471.503 301.831,474.017 298.969,474.017 298.969,460.401 
							301.831,460.401 301.831,468.108 306.016,464.144 309.429,464.144 305.318,468.328 309.796,474.017 306.327,474.017 						"/>
					</g>
					<g>
						<path style="fill:#FFFFFF;" d="M256.601,475.359L256.601,475.359l-2.86-2.86c-0.435,0.508-0.953,0.943-1.534,1.284
							c-0.092,0.069-0.186,0.136-0.283,0.199l3.027,3.027c0.456,0.456,1.195,0.456,1.65,0
							C257.057,476.554,257.057,475.815,256.601,475.359"/>
					</g>
					<g>
						<path style="fill:#FFFFFF;" d="M249.984,463.244c0.221-0.173,0.495-0.281,0.797-0.281c0.042,0,0.083,0.002,0.124,0.006
							c-0.214-0.156-0.478-0.249-0.764-0.249c-0.395,0-0.744,0.18-0.981,0.458c-0.051,0-0.1,0.006-0.151,0.008
							c0.039-0.077,0.064-0.162,0.064-0.255c0-0.234-0.143-0.434-0.346-0.519c0.087,0.126,0.138,0.279,0.138,0.445
							c0,0.122-0.031,0.237-0.081,0.341c-2.811,0.201-5.03,2.539-5.03,5.4c0,2.993,2.426,5.42,5.42,5.42
							c2.993,0,5.42-2.426,5.42-5.42C254.595,465.879,252.593,463.635,249.984,463.244 M247.983,464.656
							c0.435,0,0.844,0.112,1.199,0.309c0.374-0.245,0.82-0.387,1.299-0.387c0.711,0,1.348,0.312,1.784,0.806
							c-0.435-0.379-1.004-0.61-1.627-0.61c-0.449,0-0.87,0.12-1.234,0.329c-0.079,0.046-0.156,0.096-0.229,0.15
							c-0.065-0.048-0.133-0.093-0.204-0.134c-0.369-0.219-0.8-0.344-1.26-0.344c-0.3,0-0.588,0.054-0.854,0.152
							C247.196,464.754,247.578,464.656,247.983,464.656 M251.772,469.098c0.115,0.305,0.181,0.634,0.181,0.979
							c0,1.534-1.244,2.777-2.778,2.777c-1.534,0-2.777-1.243-2.777-2.777c0-0.345,0.066-0.674,0.181-0.979
							c-0.62-0.382-1.035-1.064-1.035-1.846c0-1.197,0.971-2.168,2.168-2.168c0.565,0,1.078,0.218,1.463,0.572
							c0.386-0.354,0.899-0.572,1.464-0.572c1.197,0,2.168,0.971,2.168,2.168C252.807,468.034,252.392,468.716,251.772,469.098"/>
					</g>
					<g>
						<path style="fill:#FFFFFF;" d="M251.666,467.061c0,0.497-0.404,0.901-0.901,0.901c-0.497,0-0.901-0.404-0.901-0.901
							s0.404-0.901,0.901-0.901c0.101,0,0.197,0.017,0.287,0.047c-0.03,0.062-0.045,0.132-0.045,0.204
							c0,0.273,0.221,0.494,0.494,0.494c0.05,0,0.099-0.008,0.146-0.022C251.66,466.941,251.666,467,251.666,467.061"/>
					</g>
					<g>
						<path style="fill:#FFFFFF;" d="M248.255,467.061c0,0.376-0.305,0.681-0.681,0.681c-0.376,0-0.681-0.305-0.681-0.681
							s0.305-0.681,0.681-0.681c0.076,0,0.149,0.013,0.217,0.035c-0.023,0.047-0.034,0.1-0.034,0.155
							c0,0.206,0.167,0.374,0.374,0.374c0.038,0,0.075-0.006,0.11-0.017C248.25,466.97,248.255,467.015,248.255,467.061"/>
					</g>
					<g>
						<g>
							<g>
								<rect x="242.908" y="467.83" style="fill:#FFFFFF;" width="0.616" height="0.616"/>
							</g>
							<g>
								<rect x="254.827" y="467.83" style="fill:#FFFFFF;" width="0.616" height="0.616"/>
							</g>
							<g>
								<path style="fill:#FFFFFF;" d="M255.205,468.082h-0.14c0-3.248-2.642-5.89-5.89-5.89c-3.248,0-5.89,2.642-5.89,5.89h-0.14
									c0-1.611,0.627-3.125,1.766-4.264c1.139-1.139,2.653-1.766,4.264-1.766c1.611,0,3.125,0.627,4.264,1.766
									C254.578,464.957,255.205,466.471,255.205,468.082"/>
							</g>
						</g>
						<g>
							<rect x="248.868" y="461.814" style="fill:#FFFFFF;" width="0.616" height="0.616"/>
						</g>
						<g>
							<rect x="244.95" y="462.052" style="fill:#FFFFFF;" width="8.45" height="0.14"/>
						</g>
						<g>
							<path style="fill:#FFFFFF;" d="M245.174,462.15c0,0.108-0.088,0.196-0.196,0.196c-0.108,0-0.196-0.088-0.196-0.196
								c0-0.108,0.088-0.196,0.196-0.196C245.086,461.954,245.174,462.042,245.174,462.15"/>
						</g>
						<g>
							<path style="fill:#FFFFFF;" d="M253.596,462.15c0,0.108-0.088,0.196-0.196,0.196c-0.108,0-0.196-0.088-0.196-0.196
								c0-0.108,0.088-0.196,0.196-0.196C253.509,461.954,253.596,462.042,253.596,462.15"/>
						</g>
					</g>
				</g>
				<g>
					<path style="fill:#FFFFFF;" d="M314.356,473.409c0,1.559-2.364,1.559-2.364,0C311.993,471.851,314.356,471.851,314.356,473.409
						z"/>
				</g>
				<g>
					<g>
						<g>
							<path style="fill:#FFFFFF;" d="M161.739,466.549l1.772,6.088l1.855-6.088h2.215l-2.823,8.14h-2.33l-0.837-2.396l-0.722-2.708
								l-0.722,2.708l-0.837,2.396h-2.33l-2.839-8.14h2.231l1.855,6.088l1.756-6.088H161.739z"/>
						</g>
						<g>
							<path style="fill:#FFFFFF;" d="M176.713,466.549l1.772,6.088l1.855-6.088h2.215l-2.823,8.14h-2.33l-0.837-2.396l-0.722-2.708
								l-0.722,2.708l-0.837,2.396h-2.33l-2.839-8.14h2.231l1.855,6.088l1.756-6.088H176.713z"/>
						</g>
						<g>
							<path style="fill:#FFFFFF;" d="M191.687,466.549l1.772,6.088l1.855-6.088h2.215l-2.823,8.14h-2.33l-0.837-2.396l-0.722-2.708
								l-0.722,2.708l-0.837,2.396h-2.33l-2.839-8.14h2.231l1.855,6.088l1.756-6.088H191.687z"/>
						</g>
					</g>
					<g>
						<path style="fill:#FFFFFF;" d="M200.908,473.52c0,1.559-2.364,1.559-2.364,0C198.545,471.962,200.908,471.962,200.908,473.52z
							"/>
					</g>
					<g>
						<path style="fill:#FFFFFF;" d="M322.71,473.409c-0.935,0.919-1.919,1.28-3.117,1.28c-2.346,0-4.3-1.411-4.3-4.282
							s1.953-4.284,4.3-4.284c1.149,0,2.035,0.329,2.921,1.199l-1.264,1.329c-0.476-0.428-1.066-0.64-1.623-0.64
							c-1.346,0-2.33,0.985-2.33,2.396c0,1.542,1.05,2.362,2.297,2.362c0.64,0,1.28-0.18,1.772-0.672L322.71,473.409z"/>
					</g>
					<g>
						<path style="fill:#FFFFFF;" d="M331.805,470.472c0,2.33-1.591,4.217-4.217,4.217c-2.626,0-4.201-1.887-4.201-4.217
							c0-2.314,1.609-4.217,4.185-4.217C330.149,466.255,331.805,468.158,331.805,470.472z M325.389,470.472
							c0,1.231,0.739,2.38,2.199,2.38c1.46,0,2.199-1.149,2.199-2.38c0-1.215-0.854-2.396-2.199-2.396
							C326.144,468.077,325.389,469.258,325.389,470.472z"/>
					</g>
					<g>
						<path style="fill:#FFFFFF;" d="M338.572,474.689v-4.332c0-1.068-0.559-2.035-1.658-2.035c-1.082,0-1.722,0.967-1.722,2.035
							v4.332h-2.003v-8.107h1.855l0.148,0.985c0.426-0.82,1.362-1.116,2.133-1.116c0.969,0,1.937,0.394,2.396,1.51
							c0.723-1.149,1.658-1.478,2.708-1.478c2.297,0,3.43,1.412,3.43,3.84v4.365h-2.003v-4.365c0-1.066-0.442-1.97-1.526-1.97
							c-1.082,0-1.756,0.935-1.756,2.003v4.332H338.572z"/>
					</g>
				</g>
			</g>
		</g>
		<g style="opacity:0.61;">
			<g>
				<g>
					<path style="fill:#FFFFFF;" d="M345.988,431.299c-0.006-1.224-0.959-2.121-2.189-2.14c-0.924-0.014-0.832,0.12-0.834-0.867
						c-0.003-1.097-0.007-2.194,0.003-3.292c0.003-0.379-0.112-0.691-0.362-0.976c-2.342-2.668-4.678-5.342-7.019-8.011
						c-0.12-0.137-0.275-0.244-0.414-0.366c-6.214,0-12.427,0-18.641,0c-0.794,0.293-1.14,0.868-1.138,1.709
						c0.01,3.748,0.004,7.496,0.004,11.243c0,0.556-0.003,0.589-0.55,0.551c-1.497-0.102-2.516,0.986-2.497,2.492
						c0.044,3.476,0.013,6.953,0.014,10.429c0.001,1.58,0.867,2.443,2.45,2.449c0.582,0.002,0.582,0.002,0.582,0.6
						c0,2.219-0.001,4.438,0.001,6.657c0.001,1.192,0.58,1.771,1.768,1.771c8.013,0.001,16.027,0.001,24.04,0
						c1.168,0,1.755-0.583,1.757-1.745c0.002-2.256,0-4.512,0.001-6.768c0-0.512,0.002-0.511,0.52-0.515
						c0.271-0.002,0.541,0.008,0.809-0.058c0.996-0.246,1.69-1.044,1.694-2.069C346.003,438.696,346.005,434.997,345.988,431.299z
						 M317.537,417.162c5.337,0,10.674,0,16.01,0c0.548,0,0.554,0.007,0.554,0.561c0.001,2.243-0.001,4.486,0.001,6.73
						c0.001,0.811,0.249,1.059,1.06,1.059c1.91,0.001,3.821,0,5.731,0.001c0.458,0,0.479,0.021,0.481,0.483
						c0.003,0.887,0.002,1.775,0,2.662c-0.001,0.477-0.024,0.498-0.504,0.499c-3.895,0.001-7.79,0-11.684,0
						c-3.882,0-7.765,0-11.647,0c-0.55,0-0.552-0.001-0.552-0.561c-0.001-3.624-0.001-7.247,0-10.871
						C316.987,417.166,316.991,417.162,317.537,417.162z M340.822,451.579c-3.883,0.001-7.766,0-11.65,0c-3.871,0-7.742,0-11.613,0
						c-0.572,0-0.574-0.002-0.574-0.579c-0.001-1.997-0.001-3.994,0.001-5.991c0-0.464,0.023-0.486,0.478-0.487
						c7.803-0.001,15.607-0.001,23.41,0c0.478,0,0.499,0.02,0.499,0.503c0.002,1.997,0.001,3.994,0,5.991
						C341.375,451.574,341.37,451.579,340.822,451.579z"/>
				</g>
				<g>
					<g>
						<rect x="327.418" y="417.053" style="fill:#FFFFFF;" width="1.757" height="1.054"/>
					</g>
					<g>
						<rect x="325.662" y="418.107" style="fill:#FFFFFF;" width="1.757" height="1.054"/>
					</g>
					<g>
						<rect x="327.418" y="419.161" style="fill:#FFFFFF;" width="1.757" height="1.054"/>
					</g>
					<g>
						<rect x="325.662" y="420.215" style="fill:#FFFFFF;" width="1.757" height="1.054"/>
					</g>
					<g>
						<rect x="327.418" y="421.269" style="fill:#FFFFFF;" width="1.757" height="1.054"/>
					</g>
					<g>
						<rect x="325.662" y="422.323" style="fill:#FFFFFF;" width="1.757" height="1.054"/>
					</g>
					<g>
						<rect x="327.418" y="423.378" style="fill:#FFFFFF;" width="1.757" height="1.054"/>
					</g>
					<g>
						<rect x="325.662" y="424.432" style="fill:#FFFFFF;" width="1.757" height="1.054"/>
					</g>
					<g>
						<rect x="327.418" y="425.486" style="fill:#FFFFFF;" width="1.757" height="1.054"/>
					</g>
					<g>
						<rect x="325.662" y="426.54" style="fill:#FFFFFF;" width="1.757" height="1.054"/>
					</g>
					<g>
						<rect x="327.418" y="427.594" style="fill:#FFFFFF;" width="1.757" height="1.054"/>
					</g>
					<g>
						<rect x="325.662" y="428.648" style="fill:#FFFFFF;" width="1.757" height="1.054"/>
					</g>
				</g>
			</g>
			<g>
				<path style="fill:#FFFFFF;" d="M187.637,431.299c-0.006-1.224-0.959-2.121-2.189-2.14c-0.924-0.014-0.832,0.12-0.834-0.867
					c-0.003-1.097-0.007-2.194,0.003-3.292c0.003-0.379-0.112-0.691-0.362-0.976c-2.342-2.668-4.678-5.342-7.019-8.011
					c-0.12-0.137-0.275-0.244-0.414-0.366c-6.214,0-12.427,0-18.641,0c-0.794,0.293-1.14,0.868-1.138,1.709
					c0.01,3.748,0.004,7.496,0.004,11.243c0,0.556-0.003,0.589-0.55,0.551c-1.497-0.102-2.516,0.986-2.497,2.492
					c0.044,3.476,0.013,6.953,0.014,10.429c0.001,1.58,0.867,2.443,2.45,2.449c0.582,0.002,0.582,0.002,0.582,0.6
					c0,2.219-0.001,4.438,0.001,6.657c0.001,1.192,0.58,1.771,1.768,1.771c8.013,0.001,16.027,0.001,24.04,0
					c1.168,0,1.755-0.583,1.757-1.745c0.002-2.256,0-4.512,0.001-6.768c0-0.512,0.002-0.511,0.52-0.515
					c0.271-0.002,0.541,0.008,0.809-0.058c0.996-0.246,1.69-1.044,1.694-2.069C187.652,438.696,187.655,434.997,187.637,431.299z
					 M159.187,417.162c5.337,0,10.674,0,16.01,0c0.548,0,0.554,0.007,0.554,0.561c0.001,2.243-0.001,4.486,0.001,6.73
					c0.001,0.811,0.249,1.059,1.06,1.059c1.91,0.001,3.821,0,5.731,0.001c0.458,0,0.479,0.021,0.481,0.483
					c0.003,0.887,0.002,1.775,0,2.662c-0.001,0.477-0.024,0.498-0.504,0.499c-3.895,0.001-7.79,0-11.684,0
					c-3.882,0-7.765,0-11.647,0c-0.55,0-0.552-0.001-0.552-0.561c-0.001-3.624-0.001-7.247,0-10.871
					C158.636,417.166,158.64,417.162,159.187,417.162z M182.472,451.579c-3.883,0.001-7.766,0-11.65,0c-3.871,0-7.742,0-11.613,0
					c-0.572,0-0.574-0.002-0.574-0.579c-0.001-1.997-0.001-3.994,0.001-5.991c0-0.464,0.023-0.486,0.478-0.487
					c7.803-0.001,15.607-0.001,23.41,0c0.478,0,0.499,0.02,0.499,0.503c0.002,1.997,0.001,3.994,0,5.991
					C183.024,451.574,183.019,451.579,182.472,451.579z"/>
			</g>
			<g>
				<path style="fill:#FFFFFF;" d="M159.779,440.669v-7.897h2.779c0.375,0,0.726,0.061,1.053,0.182
					c0.327,0.121,0.612,0.292,0.855,0.513c0.242,0.221,0.434,0.483,0.573,0.789c0.14,0.305,0.21,0.642,0.21,1.009
					c0,0.375-0.07,0.715-0.21,1.02c-0.14,0.305-0.331,0.568-0.573,0.789c-0.243,0.221-0.528,0.392-0.855,0.513
					c-0.327,0.121-0.678,0.182-1.053,0.182h-1.29v2.901H159.779z M162.58,436.356c0.39,0,0.684-0.111,0.882-0.331
					c0.199-0.22,0.298-0.474,0.298-0.761c0-0.14-0.024-0.276-0.072-0.408c-0.048-0.132-0.121-0.248-0.221-0.347
					c-0.099-0.099-0.223-0.178-0.37-0.237c-0.147-0.059-0.32-0.089-0.518-0.089h-1.312v2.173H162.58z"/>
				<path style="fill:#FFFFFF;" d="M166.308,432.771h1.731l3.177,5.294h0.088l-0.088-1.522v-3.772h1.478v7.897h-1.566l-3.353-5.592
					h-0.088l0.088,1.522v4.07h-1.467V432.771z"/>
				<path style="fill:#FFFFFF;" d="M177.922,436.334h3.872c0.022,0.089,0.04,0.195,0.055,0.32c0.014,0.125,0.022,0.25,0.022,0.375
					c0,0.507-0.077,0.985-0.231,1.434c-0.154,0.449-0.397,0.849-0.728,1.202c-0.353,0.375-0.776,0.666-1.268,0.871
					c-0.493,0.206-1.055,0.309-1.688,0.309c-0.574,0-1.114-0.103-1.622-0.309c-0.507-0.206-0.948-0.492-1.323-0.86
					c-0.375-0.367-0.673-0.803-0.894-1.307c-0.221-0.504-0.331-1.053-0.331-1.649c0-0.595,0.11-1.145,0.331-1.649
					c0.221-0.504,0.518-0.939,0.894-1.307c0.375-0.367,0.816-0.654,1.323-0.86c0.507-0.206,1.048-0.309,1.622-0.309
					c0.64,0,1.211,0.11,1.715,0.331c0.504,0.221,0.935,0.526,1.296,0.915l-1.025,1.004c-0.258-0.272-0.544-0.48-0.861-0.623
					c-0.316-0.143-0.695-0.215-1.136-0.215c-0.361,0-0.703,0.065-1.026,0.193c-0.324,0.129-0.607,0.311-0.85,0.546
					c-0.242,0.235-0.436,0.52-0.579,0.855c-0.143,0.335-0.215,0.708-0.215,1.119c0,0.412,0.072,0.785,0.215,1.12
					c0.143,0.335,0.338,0.62,0.584,0.855c0.246,0.235,0.531,0.418,0.855,0.546c0.323,0.129,0.669,0.193,1.037,0.193
					c0.419,0,0.773-0.061,1.064-0.182c0.29-0.121,0.538-0.278,0.744-0.469c0.148-0.132,0.275-0.3,0.381-0.502
					c0.106-0.202,0.189-0.428,0.248-0.678h-2.482V436.334z"/>
			</g>
			<g>
				<path style="fill:#FFFFFF;" d="M224.019,431.299c-0.006-1.224-0.959-2.121-2.189-2.14c-0.924-0.014-0.832,0.12-0.834-0.867
					c-0.003-1.097-0.007-2.194,0.003-3.292c0.003-0.379-0.112-0.691-0.362-0.976c-2.342-2.668-4.678-5.342-7.019-8.011
					c-0.12-0.137-0.275-0.244-0.414-0.366c-6.214,0-12.427,0-18.641,0c-0.794,0.293-1.14,0.868-1.138,1.709
					c0.01,3.748,0.004,7.496,0.004,11.243c0,0.556-0.003,0.589-0.55,0.551c-1.497-0.102-2.516,0.986-2.497,2.492
					c0.044,3.476,0.013,6.953,0.014,10.429c0.001,1.58,0.867,2.443,2.45,2.449c0.582,0.002,0.582,0.002,0.582,0.6
					c0,2.219-0.001,4.438,0.001,6.657c0.001,1.192,0.58,1.771,1.768,1.771c8.013,0.001,16.027,0.001,24.04,0
					c1.168,0,1.755-0.583,1.757-1.745c0.002-2.256,0-4.512,0.001-6.768c0-0.512,0.002-0.511,0.52-0.515
					c0.271-0.002,0.541,0.008,0.809-0.058c0.997-0.246,1.69-1.044,1.694-2.069C224.034,438.696,224.036,434.997,224.019,431.299z
					 M195.568,417.162c5.337,0,10.674,0,16.01,0c0.548,0,0.554,0.007,0.554,0.561c0.001,2.243-0.001,4.486,0.001,6.73
					c0.001,0.811,0.249,1.059,1.06,1.059c1.91,0.001,3.821,0,5.731,0.001c0.458,0,0.479,0.021,0.481,0.483
					c0.003,0.887,0.002,1.775,0,2.662c-0.001,0.477-0.024,0.498-0.504,0.499c-3.895,0.001-7.79,0-11.684,0
					c-3.882,0-7.765,0-11.647,0c-0.55,0-0.552-0.001-0.552-0.561c-0.001-3.624-0.001-7.247,0-10.871
					C195.018,417.166,195.022,417.162,195.568,417.162z M218.854,451.579c-3.883,0.001-7.766,0-11.65,0c-3.871,0-7.742,0-11.613,0
					c-0.572,0-0.574-0.002-0.574-0.579c-0.001-1.997-0.001-3.994,0.001-5.991c0-0.464,0.023-0.486,0.478-0.487
					c7.803-0.001,15.607-0.001,23.41,0c0.478,0,0.499,0.02,0.499,0.503c0.002,1.997,0.001,3.994,0,5.991
					C219.406,451.574,219.401,451.579,218.854,451.579z"/>
			</g>
			<g>
				<path style="fill:#FFFFFF;" d="M205.111,432.771h1.699l2.967,7.897h-1.644l-0.651-1.886h-3.044l-0.651,1.886h-1.643
					L205.111,432.771z M206.997,437.415l-0.706-1.974l-0.287-0.96h-0.088l-0.287,0.96l-0.706,1.974H206.997z"/>
				<path style="fill:#FFFFFF;" d="M211.331,434.536c-0.125,0-0.245-0.024-0.359-0.072c-0.114-0.048-0.213-0.114-0.298-0.199
					c-0.084-0.084-0.151-0.182-0.198-0.292c-0.048-0.11-0.072-0.232-0.072-0.364s0.024-0.254,0.072-0.364
					c0.048-0.11,0.114-0.208,0.198-0.292c0.084-0.084,0.184-0.151,0.298-0.198c0.114-0.048,0.233-0.072,0.359-0.072
					c0.257,0,0.478,0.09,0.662,0.27c0.184,0.181,0.276,0.399,0.276,0.656s-0.092,0.476-0.276,0.656
					C211.809,434.446,211.589,434.536,211.331,434.536z M210.615,440.669v-5.404h1.445v5.404H210.615z"/>
			</g>
			<g>
				<path style="fill:#FFFFFF;" d="M261.044,431.299c-0.006-1.224-0.959-2.121-2.189-2.14c-0.924-0.014-0.832,0.12-0.834-0.867
					c-0.003-1.097-0.007-2.194,0.003-3.292c0.003-0.379-0.112-0.691-0.362-0.976c-2.342-2.668-4.678-5.342-7.019-8.011
					c-0.12-0.137-0.275-0.244-0.414-0.366c-6.214,0-12.427,0-18.641,0c-0.794,0.293-1.14,0.868-1.138,1.709
					c0.01,3.748,0.004,7.496,0.004,11.243c0,0.556-0.003,0.589-0.55,0.551c-1.497-0.102-2.516,0.986-2.497,2.492
					c0.044,3.476,0.013,6.953,0.014,10.429c0.001,1.58,0.867,2.443,2.45,2.449c0.582,0.002,0.582,0.002,0.582,0.6
					c0,2.219-0.001,4.438,0.001,6.657c0.001,1.192,0.58,1.771,1.768,1.771c8.013,0.001,16.027,0.001,24.04,0
					c1.168,0,1.755-0.583,1.757-1.745c0.002-2.256,0-4.512,0.001-6.768c0-0.512,0.002-0.511,0.52-0.515
					c0.271-0.002,0.541,0.008,0.809-0.058c0.996-0.246,1.69-1.044,1.694-2.069C261.059,438.696,261.061,434.997,261.044,431.299z
					 M232.593,417.162c5.337,0,10.674,0,16.01,0c0.548,0,0.554,0.007,0.554,0.561c0.001,2.243-0.001,4.486,0.001,6.73
					c0.001,0.811,0.249,1.059,1.06,1.059c1.91,0.001,3.821,0,5.731,0.001c0.458,0,0.479,0.021,0.481,0.483
					c0.003,0.887,0.002,1.775,0,2.662c-0.001,0.477-0.024,0.498-0.504,0.499c-3.895,0.001-7.79,0-11.684,0
					c-3.882,0-7.765,0-11.647,0c-0.55,0-0.552-0.001-0.552-0.561c-0.001-3.624-0.001-7.247,0-10.871
					C232.042,417.166,232.047,417.162,232.593,417.162z M255.878,451.579c-3.883,0.001-7.766,0-11.65,0c-3.871,0-7.742,0-11.613,0
					c-0.572,0-0.574-0.002-0.574-0.579c-0.001-1.997-0.001-3.994,0.001-5.991c0-0.464,0.023-0.486,0.478-0.487
					c7.803-0.001,15.607-0.001,23.41,0c0.478,0,0.499,0.02,0.499,0.503c0.002,1.997,0.001,3.994,0,5.991
					C256.431,451.574,256.426,451.579,255.878,451.579z"/>
			</g>
			<g>
				<path style="fill:#FFFFFF;" d="M236.361,440.845c-0.338,0-0.662-0.048-0.971-0.143c-0.309-0.095-0.592-0.239-0.849-0.43
					c-0.257-0.191-0.481-0.425-0.673-0.7c-0.191-0.276-0.342-0.597-0.452-0.965l1.401-0.551c0.103,0.397,0.283,0.726,0.54,0.987
					c0.257,0.261,0.596,0.392,1.015,0.392c0.154,0,0.303-0.02,0.447-0.061c0.143-0.04,0.272-0.099,0.386-0.176
					s0.204-0.175,0.27-0.292c0.066-0.118,0.099-0.254,0.099-0.408c0-0.147-0.026-0.279-0.077-0.397
					c-0.051-0.117-0.138-0.227-0.259-0.331c-0.121-0.103-0.28-0.202-0.475-0.298c-0.195-0.095-0.435-0.195-0.722-0.298l-0.485-0.176
					c-0.213-0.073-0.429-0.173-0.645-0.298c-0.217-0.125-0.413-0.276-0.59-0.452c-0.177-0.176-0.322-0.384-0.436-0.623
					c-0.114-0.239-0.171-0.509-0.171-0.81c0-0.309,0.06-0.597,0.182-0.866c0.121-0.268,0.294-0.503,0.518-0.706
					c0.224-0.202,0.492-0.36,0.805-0.474s0.66-0.171,1.042-0.171c0.397,0,0.74,0.053,1.031,0.16
					c0.291,0.107,0.537,0.243,0.739,0.408c0.202,0.165,0.366,0.348,0.491,0.546c0.125,0.199,0.217,0.386,0.276,0.563l-1.312,0.551
					c-0.074-0.221-0.208-0.419-0.402-0.596c-0.195-0.176-0.462-0.265-0.8-0.265c-0.324,0-0.592,0.075-0.805,0.226
					c-0.213,0.151-0.32,0.348-0.32,0.59c0,0.235,0.103,0.436,0.309,0.601c0.206,0.165,0.533,0.325,0.982,0.48l0.497,0.165
					c0.316,0.111,0.605,0.237,0.866,0.381c0.261,0.143,0.485,0.314,0.673,0.513c0.187,0.199,0.331,0.425,0.43,0.678
					c0.1,0.254,0.149,0.546,0.149,0.877c0,0.412-0.083,0.767-0.248,1.064c-0.165,0.298-0.377,0.542-0.634,0.734
					c-0.258,0.191-0.548,0.335-0.872,0.43C236.986,440.797,236.67,440.845,236.361,440.845z"/>
				<path style="fill:#FFFFFF;" d="M239.516,432.771h1.61l1.633,4.754l0.287,1.015h0.088l0.309-1.015l1.699-4.754h1.61l-2.879,7.897
					h-1.566L239.516,432.771z"/>
				<path style="fill:#FFFFFF;" d="M251.097,436.334h3.871c0.022,0.089,0.04,0.195,0.055,0.32c0.015,0.125,0.023,0.25,0.023,0.375
					c0,0.507-0.078,0.985-0.232,1.434c-0.154,0.449-0.397,0.849-0.728,1.202c-0.353,0.375-0.775,0.666-1.268,0.871
					c-0.493,0.206-1.055,0.309-1.688,0.309c-0.574,0-1.114-0.103-1.621-0.309c-0.507-0.206-0.949-0.492-1.324-0.86
					c-0.375-0.367-0.673-0.803-0.894-1.307c-0.22-0.504-0.331-1.053-0.331-1.649c0-0.595,0.11-1.145,0.331-1.649
					c0.221-0.504,0.518-0.939,0.894-1.307c0.375-0.367,0.816-0.654,1.324-0.86c0.507-0.206,1.047-0.309,1.621-0.309
					c0.64,0,1.211,0.11,1.715,0.331c0.504,0.221,0.936,0.526,1.296,0.915l-1.026,1.004c-0.257-0.272-0.544-0.48-0.861-0.623
					c-0.316-0.143-0.694-0.215-1.136-0.215c-0.36,0-0.702,0.065-1.026,0.193c-0.323,0.129-0.607,0.311-0.849,0.546
					c-0.243,0.235-0.436,0.52-0.579,0.855c-0.143,0.335-0.215,0.708-0.215,1.119c0,0.412,0.072,0.785,0.215,1.12
					c0.143,0.335,0.338,0.62,0.585,0.855c0.246,0.235,0.531,0.418,0.854,0.546c0.324,0.129,0.669,0.193,1.037,0.193
					c0.419,0,0.774-0.061,1.064-0.182c0.29-0.121,0.539-0.278,0.745-0.469c0.147-0.132,0.274-0.3,0.38-0.502
					c0.107-0.202,0.189-0.428,0.248-0.678h-2.482V436.334z"/>
			</g>
			<g>
				<path style="fill:#FFFFFF;" d="M297.3,431.299c-0.006-1.224-0.959-2.121-2.189-2.14c-0.924-0.014-0.832,0.12-0.834-0.867
					c-0.003-1.097-0.007-2.194,0.003-3.292c0.003-0.379-0.112-0.691-0.362-0.976c-2.342-2.668-4.678-5.342-7.019-8.011
					c-0.12-0.137-0.275-0.244-0.414-0.366c-6.214,0-12.427,0-18.641,0c-0.794,0.293-1.14,0.868-1.138,1.709
					c0.01,3.748,0.004,7.496,0.004,11.243c0,0.556-0.003,0.589-0.55,0.551c-1.497-0.102-2.516,0.986-2.497,2.492
					c0.044,3.476,0.013,6.953,0.014,10.429c0.001,1.58,0.867,2.443,2.45,2.449c0.582,0.002,0.582,0.002,0.582,0.6
					c0,2.219-0.001,4.438,0.001,6.657c0.001,1.192,0.58,1.771,1.768,1.771c8.013,0.001,16.027,0.001,24.04,0
					c1.168,0,1.755-0.583,1.757-1.745c0.002-2.256,0-4.512,0.001-6.768c0-0.512,0.002-0.511,0.52-0.515
					c0.271-0.002,0.541,0.008,0.809-0.058c0.996-0.246,1.69-1.044,1.694-2.069C297.315,438.696,297.318,434.997,297.3,431.299z
					 M268.85,417.162c5.337,0,10.674,0,16.01,0c0.548,0,0.554,0.007,0.554,0.561c0.001,2.243-0.001,4.486,0.001,6.73
					c0.001,0.811,0.249,1.059,1.06,1.059c1.91,0.001,3.821,0,5.731,0.001c0.458,0,0.479,0.021,0.481,0.483
					c0.003,0.887,0.002,1.775,0,2.662c-0.001,0.477-0.024,0.498-0.504,0.499c-3.895,0.001-7.79,0-11.684,0
					c-3.882,0-7.765,0-11.647,0c-0.55,0-0.552-0.001-0.552-0.561c-0.001-3.624-0.001-7.247,0-10.871
					C268.299,417.166,268.303,417.162,268.85,417.162z M292.135,451.579c-3.883,0.001-7.766,0-11.65,0c-3.871,0-7.742,0-11.613,0
					c-0.572,0-0.574-0.002-0.574-0.579c-0.001-1.997-0.001-3.994,0.001-5.991c0-0.464,0.023-0.486,0.478-0.487
					c7.803-0.001,15.607-0.001,23.41,0c0.478,0,0.499,0.02,0.499,0.503c0.001,1.997,0.001,3.994,0,5.991
					C292.687,451.574,292.682,451.579,292.135,451.579z"/>
			</g>
			<g>
				<path style="fill:#FFFFFF;" d="M272.966,434.183v1.831h3.165v1.412h-3.165v1.831h3.518v1.412h-5.007v-7.897h5.007v1.412H272.966
					z"/>
				<path style="fill:#FFFFFF;" d="M277.852,440.669v-7.897h2.779c0.375,0,0.726,0.061,1.053,0.182
					c0.327,0.121,0.612,0.292,0.855,0.513c0.243,0.221,0.434,0.483,0.574,0.789c0.14,0.305,0.209,0.642,0.209,1.009
					c0,0.375-0.07,0.715-0.209,1.02c-0.14,0.305-0.331,0.568-0.574,0.789c-0.243,0.221-0.528,0.392-0.855,0.513
					c-0.327,0.121-0.678,0.182-1.053,0.182h-1.29v2.901H277.852z M280.653,436.356c0.389,0,0.684-0.111,0.882-0.331
					c0.199-0.22,0.298-0.474,0.298-0.761c0-0.14-0.024-0.276-0.072-0.408c-0.048-0.132-0.121-0.248-0.221-0.347
					c-0.099-0.099-0.222-0.178-0.37-0.237c-0.147-0.059-0.32-0.089-0.518-0.089h-1.312v2.173H280.653z"/>
				<path style="fill:#FFFFFF;" d="M286.797,440.845c-0.338,0-0.662-0.048-0.971-0.143c-0.309-0.095-0.592-0.239-0.849-0.43
					c-0.257-0.191-0.482-0.425-0.673-0.7c-0.191-0.276-0.342-0.597-0.452-0.965l1.401-0.551c0.103,0.397,0.283,0.726,0.541,0.987
					c0.257,0.261,0.595,0.392,1.015,0.392c0.154,0,0.303-0.02,0.447-0.061c0.143-0.04,0.272-0.099,0.386-0.176
					c0.114-0.077,0.204-0.175,0.27-0.292c0.066-0.118,0.1-0.254,0.1-0.408c0-0.147-0.026-0.279-0.077-0.397
					c-0.051-0.117-0.138-0.227-0.259-0.331c-0.121-0.103-0.279-0.202-0.474-0.298c-0.195-0.095-0.436-0.195-0.723-0.298
					l-0.485-0.176c-0.213-0.073-0.428-0.173-0.645-0.298c-0.217-0.125-0.414-0.276-0.59-0.452c-0.176-0.176-0.322-0.384-0.436-0.623
					c-0.114-0.239-0.171-0.509-0.171-0.81c0-0.309,0.061-0.597,0.182-0.866c0.121-0.268,0.294-0.503,0.518-0.706
					c0.224-0.202,0.493-0.36,0.805-0.474c0.312-0.114,0.66-0.171,1.042-0.171c0.397,0,0.741,0.053,1.031,0.16
					c0.29,0.107,0.537,0.243,0.739,0.408c0.202,0.165,0.365,0.348,0.491,0.546c0.125,0.199,0.217,0.386,0.276,0.563l-1.312,0.551
					c-0.074-0.221-0.208-0.419-0.403-0.596c-0.195-0.176-0.462-0.265-0.799-0.265c-0.324,0-0.592,0.075-0.805,0.226
					c-0.213,0.151-0.32,0.348-0.32,0.59c0,0.235,0.103,0.436,0.309,0.601c0.206,0.165,0.533,0.325,0.982,0.48l0.496,0.165
					c0.316,0.111,0.605,0.237,0.866,0.381c0.261,0.143,0.485,0.314,0.673,0.513c0.187,0.199,0.331,0.425,0.43,0.678
					c0.099,0.254,0.149,0.546,0.149,0.877c0,0.412-0.083,0.767-0.248,1.064c-0.165,0.298-0.377,0.542-0.634,0.734
					c-0.258,0.191-0.548,0.335-0.872,0.43C287.422,440.797,287.105,440.845,286.797,440.845z"/>
			</g>
			<g>
				<path style="fill:#FFFFFF;" d="M321.394,439.168l4.004-4.985h-3.827v-1.412h5.559v1.5l-3.96,4.985h4.004v1.412h-5.779V439.168z"
					/>
				<path style="fill:#FFFFFF;" d="M328.409,432.771h1.489v7.897h-1.489V432.771z"/>
				<path style="fill:#FFFFFF;" d="M331.486,440.669v-7.897h2.779c0.375,0,0.726,0.061,1.053,0.182
					c0.327,0.121,0.612,0.292,0.855,0.513s0.434,0.483,0.574,0.789c0.14,0.305,0.209,0.642,0.209,1.009
					c0,0.375-0.07,0.715-0.209,1.02c-0.14,0.305-0.331,0.568-0.574,0.789c-0.243,0.221-0.528,0.392-0.855,0.513
					c-0.327,0.121-0.678,0.182-1.053,0.182h-1.29v2.901H331.486z M334.288,436.356c0.389,0,0.684-0.111,0.882-0.331
					c0.199-0.22,0.298-0.474,0.298-0.761c0-0.14-0.024-0.276-0.072-0.408c-0.048-0.132-0.121-0.248-0.221-0.347
					c-0.099-0.099-0.222-0.178-0.37-0.237c-0.147-0.059-0.32-0.089-0.518-0.089h-1.312v2.173H334.288z"/>
			</g>
		</g>
		<g style="opacity:0.61;">
			<path style="fill:#FFFFFF;" d="M300.133,433.27h9.067v2.242h-9.067V433.27z M300.133,437.136h9.067v2.243h-9.067V437.136z"/>
		</g>
	</g>
	<g style="opacity:0.61;">
		<path style="fill:#FFFFFF;" d="M156.756,478.878h1.607c1.263,0,2.114,0.812,2.114,1.974c0,1.161-0.851,1.973-2.114,1.973h-1.607
			V478.878z M158.34,482.464c1.049,0,1.725-0.665,1.725-1.612c0-0.947-0.677-1.613-1.725-1.613h-1.167v3.225H158.34z"/>
		<path style="fill:#FFFFFF;" d="M165.139,480.851c0-1.15,0.879-2.007,2.075-2.007c1.184,0,2.069,0.851,2.069,2.007
			c0,1.156-0.885,2.007-2.069,2.007C166.019,482.858,165.139,482.002,165.139,480.851z M168.866,480.851
			c0-0.942-0.705-1.635-1.652-1.635c-0.953,0-1.663,0.693-1.663,1.635c0,0.941,0.71,1.635,1.663,1.635
			C168.162,482.486,168.866,481.793,168.866,480.851z"/>
		<path style="fill:#FFFFFF;" d="M179.596,478.878l-1.331,3.947h-0.44l-1.156-3.366l-1.161,3.366h-0.434l-1.331-3.947h0.429
			l1.139,3.394l1.178-3.394h0.389l1.161,3.411l1.156-3.411H179.596z"/>
		<path style="fill:#FFFFFF;" d="M187.731,478.878v3.947h-0.344l-2.537-3.202v3.202h-0.417v-3.947h0.344l2.543,3.203v-3.203H187.731
			z"/>
		<path style="fill:#FFFFFF;" d="M193.093,478.878h0.417v3.586h2.21v0.361h-2.627V478.878z"/>
		<path style="fill:#FFFFFF;" d="M200.061,480.851c0-1.15,0.879-2.007,2.075-2.007c1.184,0,2.069,0.851,2.069,2.007
			c0,1.156-0.885,2.007-2.069,2.007C200.941,482.858,200.061,482.002,200.061,480.851z M203.788,480.851
			c0-0.942-0.705-1.635-1.652-1.635c-0.953,0-1.663,0.693-1.663,1.635c0,0.941,0.71,1.635,1.663,1.635
			C203.083,482.486,203.788,481.793,203.788,480.851z"/>
		<path style="fill:#FFFFFF;" d="M211.636,481.77h-2.199l-0.474,1.054h-0.434l1.804-3.947h0.412l1.804,3.947h-0.44L211.636,481.77z
			 M211.484,481.432l-0.947-2.12l-0.947,2.12H211.484z"/>
		<path style="fill:#FFFFFF;" d="M217.28,478.878h1.607c1.263,0,2.114,0.812,2.114,1.974c0,1.161-0.851,1.973-2.114,1.973h-1.607
			V478.878z M218.864,482.464c1.049,0,1.725-0.665,1.725-1.612c0-0.947-0.677-1.613-1.725-1.613h-1.167v3.225H218.864z"/>
		<path style="fill:#FFFFFF;" d="M234.041,481.77h-2.199l-0.474,1.054h-0.434l1.804-3.947h0.412l1.804,3.947h-0.44L234.041,481.77z
			 M233.889,481.432l-0.947-2.12l-0.947,2.12H233.889z"/>
		<path style="fill:#FFFFFF;" d="M239.685,478.878h0.417v3.586h2.21v0.361h-2.627V478.878z"/>
		<path style="fill:#FFFFFF;" d="M247.082,478.878h0.417v3.586h2.21v0.361h-2.627V478.878z"/>
		<path style="fill:#FFFFFF;" d="M260.449,479.239v1.551h2.041v0.361h-2.041v1.675h-0.417v-3.947h2.706v0.361H260.449z"/>
		<path style="fill:#FFFFFF;" d="M267.678,478.878h0.417v3.947h-0.417V478.878z"/>
		<path style="fill:#FFFFFF;" d="M273.456,478.878h0.417v3.586h2.21v0.361h-2.627V478.878z"/>
		<path style="fill:#FFFFFF;" d="M283.644,482.464v0.361h-2.791v-3.947h2.706v0.361h-2.289v1.404h2.041v0.355h-2.041v1.466H283.644z
			"/>
		<path style="fill:#FFFFFF;" d="M294.672,479.239v1.551h2.041v0.361h-2.041v1.675h-0.417v-3.947h2.706v0.361H294.672z"/>
		<path style="fill:#FFFFFF;" d="M301.5,480.851c0-1.15,0.879-2.007,2.075-2.007c1.184,0,2.069,0.851,2.069,2.007
			c0,1.156-0.885,2.007-2.069,2.007C302.379,482.858,301.5,482.002,301.5,480.851z M305.226,480.851
			c0-0.942-0.705-1.635-1.652-1.635c-0.953,0-1.663,0.693-1.663,1.635c0,0.941,0.71,1.635,1.663,1.635
			C304.522,482.486,305.226,481.793,305.226,480.851z"/>
		<path style="fill:#FFFFFF;" d="M313.351,482.825l-0.902-1.269c-0.102,0.011-0.203,0.017-0.316,0.017h-1.06v1.252h-0.417v-3.947
			h1.477c1.004,0,1.613,0.507,1.613,1.353c0,0.62-0.327,1.054-0.902,1.24l0.964,1.353H313.351z M313.328,480.231
			c0-0.632-0.417-0.992-1.207-0.992h-1.048v1.979h1.048C312.911,481.218,313.328,480.851,313.328,480.231z"/>
		<path style="fill:#FFFFFF;" d="M322.907,478.878v3.947h-0.4v-3.158l-1.551,2.656h-0.197l-1.551-2.639v3.14h-0.4v-3.947h0.344
			l1.714,2.926l1.697-2.926H322.907z"/>
		<path style="fill:#FFFFFF;" d="M330.744,481.77h-2.199l-0.473,1.054h-0.434l1.804-3.947h0.411l1.804,3.947h-0.44L330.744,481.77z
			 M330.592,481.432l-0.947-2.12l-0.947,2.12H330.592z"/>
		<path style="fill:#FFFFFF;" d="M336.957,479.239h-1.387v-0.361h3.192v0.361h-1.387v3.586h-0.417V479.239z"/>
		<path style="fill:#FFFFFF;" d="M343.063,482.346l0.164-0.321c0.282,0.276,0.784,0.479,1.302,0.479c0.739,0,1.06-0.31,1.06-0.699
			c0-1.083-2.43-0.417-2.43-1.877c0-0.581,0.451-1.083,1.455-1.083c0.446,0,0.908,0.13,1.224,0.35l-0.141,0.333
			c-0.338-0.22-0.733-0.327-1.083-0.327c-0.722,0-1.043,0.321-1.043,0.716c0,1.083,2.43,0.429,2.43,1.866
			c0,0.581-0.462,1.077-1.472,1.077C343.937,482.858,343.356,482.65,343.063,482.346z"/>
	</g>
</g>
<g>
</g>
<g>
	<path style="fill-rule:evenodd;clip-rule:evenodd;fill:#F5D85A;" d="M131.943,250.379c-7.607-0.084-14.541-3.174-18.426-7.546
		c-6.217-6.996-7.341-18.18-6.676-30.834c12.778-17.659,37.429-17.646,50.204,0.009c0.665,12.654-0.459,23.839-6.676,30.834
		C146.485,247.213,139.55,250.295,131.943,250.379L131.943,250.379z"/>
	
		<path style="fill-rule:evenodd;clip-rule:evenodd;fill:#FA2811;stroke:#C90E11;stroke-width:0.2835;stroke-linecap:round;stroke-linejoin:round;stroke-miterlimit:22.9256;" d="
		M131.943,247.305c-2.483,0.033-5.225-0.664-7.708-2.072c-7.612,0.878-10.948-4.299-10.925-9.391
		c-5.086-0.934-1.823-5.214-2.466-9.706c-0.76-5.299-1.196-10.298,2.564-11.408c1.768-0.522,4.302,2.12,3.88,3.942l0.783-3.38
		c1.661-7.17,8.325-8.995,13.873-9.072c5.512-0.077,11.464,2.512,13.707,9.086l0.698,2.603c0.462-2.408,1.238-4.926,3.938-4.331
		c4.417,0.972,3.002,6.952,2.277,13.074c-0.491,4.141,3.053,8.059-2.075,8.749c1.109,4.613-3.973,10.289-10.512,9.823
		C136.827,247.129,133.877,247.286,131.943,247.305L131.943,247.305z"/>
	
		<path style="fill-rule:evenodd;clip-rule:evenodd;fill:#FFFFFF;stroke:#AA120D;stroke-width:0.216;stroke-linecap:round;stroke-linejoin:round;stroke-miterlimit:22.9256;" d="
		M122.731,242.653c-3.184,0.62-4.502-2.171-3.879-3.846l2.748-7.384c0.37-0.995,1.8-1.538,2.909-1.538
		c2.536,0,2.451,1.164,7.434,1.215c4.983-0.051,4.899-1.215,7.435-1.215c1.109,0,2.539,0.543,2.909,1.538l2.748,7.384
		c0.623,1.674-0.688,4.424-3.879,3.846C132.73,241.125,130.498,241.139,122.731,242.653L122.731,242.653z"/>
	
		<path style="fill:#03124D;stroke:#03124D;stroke-width:0.7087;stroke-linecap:round;stroke-linejoin:round;stroke-miterlimit:22.9256;" d="
		M124.188,245.428c-0.68,0.133-1.428,0.203-2.266,0.182c-0.705-0.018-1.373-0.105-2.001-0.251c-2.259-0.522-4.034-1.802-5.231-3.408
		l0,0c-1.197-1.606-1.817-3.542-1.769-5.378c0.013-0.485,0.072-0.962,0.178-1.422l4.008-17.325c0.037-0.164,0.201-0.267,0.365-0.229
		c0.091,0.021,0.163,0.08,0.203,0.157c0.61,1.042,1.207,1.907,1.848,2.496c0.608,0.56,1.259,0.867,2.004,0.83
		c0.488-0.023,0.997-0.174,1.551-0.338c0.875-0.259,1.862-0.55,3.148-0.486c0.899,0.045,1.921,0.448,2.799,1.037
		c0.876,0.587,1.622,1.366,1.975,2.166c0.041,0.092,0.032,0.193-0.015,0.274c-0.435,0.869-1.469,1.836-2.722,2.585
		c-1.156,0.691-2.507,1.206-3.752,1.296c-0.185,0.013-0.372,0.016-0.559,0.009h-0.003c-1.843-0.072-3.457-1.143-4.644-2.723
		c-1.066-1.418-1.789-3.25-2.023-5.132l-3.591,15.519c-0.098,0.424-0.152,0.86-0.163,1.3c-0.045,1.701,0.533,3.501,1.649,4.998l0,0
		l0,0c1.116,1.497,2.771,2.69,4.878,3.177c0.593,0.137,1.221,0.219,1.879,0.236c2.757,0.072,4.516-0.932,6.08-1.826
		c3.264-1.864,4.539-1.877,7.818-0.005c1.564,0.893,3.324,1.898,6.08,1.826c0.659-0.017,1.287-0.1,1.879-0.236
		c2.108-0.488,3.763-1.68,4.878-3.177l0-0.001l0,0c1.116-1.497,1.694-3.297,1.649-4.998c-0.011-0.44-0.066-0.877-0.163-1.3
		l-3.591-15.519c-0.233,1.882-0.957,3.714-2.023,5.132c-1.187,1.58-2.801,2.651-4.644,2.723h-0.003
		c-0.188,0.008-0.374,0.005-0.559-0.008c-1.245-0.089-2.596-0.604-3.752-1.295c-1.252-0.749-2.286-1.716-2.722-2.585
		c-0.046-0.081-0.055-0.182-0.015-0.274c0.354-0.8,1.099-1.579,1.976-2.166c0.878-0.589,1.9-0.992,2.799-1.037
		c1.287-0.065,2.273,0.227,3.148,0.485c0.554,0.164,1.063,0.315,1.551,0.338c0.745,0.036,1.396-0.27,2.004-0.831
		c0.641-0.589,1.238-1.454,1.848-2.496c0.04-0.077,0.112-0.137,0.203-0.158c0.164-0.037,0.328,0.065,0.365,0.229l4.008,17.325
		c0.106,0.46,0.165,0.937,0.178,1.422c0.049,1.835-0.571,3.772-1.768,5.377l0,0c-1.197,1.606-2.972,2.885-5.231,3.408
		c-0.628,0.145-1.296,0.232-2.001,0.251c-0.657,0.017-1.26-0.023-1.818-0.105c-0.018,0.016-0.038,0.03-0.06,0.042
		c-1.134,0.596-2.564,1.148-4.063,1.533c-1.345,0.346-2.749,0.558-4.046,0.549c-1.371-0.009-2.745-0.21-4.055-0.581
		C126.573,246.669,125.318,246.124,124.188,245.428L124.188,245.428z"/>
	<path style="fill:#FA2811;" d="M128.317,243.706c-0.962,0.549-1.994,1.138-3.278,1.515c0.938,0.519,1.954,0.935,3.013,1.235
		c1.262,0.357,2.581,0.551,3.893,0.56c1.244,0.009,2.595-0.196,3.893-0.53c1.189-0.306,2.333-0.72,3.312-1.178
		c-1.443-0.367-2.571-1.011-3.616-1.607C132.465,241.948,131.4,241.945,128.317,243.706L128.317,243.706z"/>
	<path style="fill:#FFFFFF;" d="M119.11,220.7c-0.443-0.407-0.861-0.928-1.273-1.538l0,0.007c0.141,1.96,0.855,3.902,1.956,5.367
		c1.083,1.44,2.538,2.417,4.181,2.48h0.004c0.158,0.006,0.323,0.003,0.492-0.009c1.146-0.082,2.402-0.563,3.482-1.209
		c1.102-0.659,2.011-1.482,2.429-2.222c-0.329-0.648-0.957-1.282-1.694-1.776c-0.794-0.531-1.703-0.895-2.49-0.934
		c-1.184-0.059-2.119,0.217-2.947,0.462c-0.59,0.175-1.131,0.335-1.695,0.362C120.63,221.735,119.838,221.369,119.11,220.7
		L119.11,220.7z"/>
	<path style="fill:#FFFFFF;" d="M144.741,220.695c-0.728,0.67-1.52,1.035-2.446,0.99c-0.563-0.028-1.104-0.188-1.694-0.362
		c-0.828-0.245-1.763-0.521-2.947-0.462c-0.786,0.039-1.696,0.403-2.49,0.935c-0.737,0.493-1.365,1.127-1.693,1.776
		c0.417,0.74,1.328,1.563,2.429,2.222c1.08,0.646,2.336,1.127,3.482,1.209c0.169,0.012,0.334,0.015,0.492,0.009h0.004
		c1.643-0.063,3.099-1.039,4.181-2.48c1.101-1.466,1.815-3.406,1.956-5.367l0-0.007
		C145.603,219.766,145.184,220.288,144.741,220.695L144.741,220.695z"/>
	<path style="fill-rule:evenodd;clip-rule:evenodd;fill:#03124D;" d="M124.301,239.908c-2.196,0.307-1.737-1.323-1.311-2.469
		l1.879-5.05c0.253-0.68,1.231-1.052,1.989-1.052c1.734,0,1.676,0.473,5.084,0.508c3.408-0.035,3.35-0.508,5.085-0.508
		c0.759,0,1.737,0.372,1.989,1.052l1.879,5.05c0.426,1.145,0.917,2.872-1.279,2.565C133.423,239.14,130.476,239.044,124.301,239.908
		L124.301,239.908z"/>
	
		<path style="fill-rule:evenodd;clip-rule:evenodd;fill:#FFFFFF;stroke:#FFFFFF;stroke-width:0.216;stroke-linecap:round;stroke-linejoin:round;stroke-miterlimit:22.9256;" d="
		M136.849,235.193l2.367,3.299h-2.367V235.193L136.849,235.193z M134.431,237.18h1.748v1.313h-1.748V237.18L134.431,237.18z
		 M132.195,237.18h1.747v1.313h-1.747V237.18L132.195,237.18z M129.865,237.18h1.747v1.313h-1.747V237.18L129.865,237.18z
		 M127.61,237.18h1.747v1.313h-1.747V237.18L127.61,237.18z M126.976,235.193l-2.367,3.299h2.367V235.193L126.976,235.193z"/>
	
		<path style="fill-rule:evenodd;clip-rule:evenodd;fill:#FFFFFF;stroke:#FFFFFF;stroke-width:0.216;stroke-linecap:round;stroke-linejoin:round;stroke-miterlimit:22.9256;" d="
		M136.285,234.733l2.075-2.06h-2.075V234.733L136.285,234.733z M134.165,233.492h1.532v-0.819h-1.532V233.492L134.165,233.492z
		 M132.204,233.492h1.532v-0.819h-1.532V233.492L132.204,233.492z M130.161,233.492h1.532v-0.819h-1.532V233.492L130.161,233.492z
		 M128.184,233.492h1.532v-0.819h-1.532V233.492L128.184,233.492z M127.628,234.733l-2.075-2.06h2.075V234.733L127.628,234.733z"/>
	<path style="fill-rule:evenodd;clip-rule:evenodd;fill:#FA2811;" d="M131.8,234.671c1.623,0,3.781,0.959,4.317,1.971h-8.478
		C128.32,235.661,130.177,234.671,131.8,234.671L131.8,234.671z"/>
	<path style="fill-rule:evenodd;clip-rule:evenodd;fill:#FFFFFF;" d="M118.18,215.572c1.039,0.948,2.079,1.649,3.276,1.69
		c1.528,0.053,3.069-0.731,4.587-0.55c3.393,0.405,5.297,3.512,5.248,6.507c-0.945-1.751-3.084-3.2-5.176-3.25
		c-1.995-0.049-3.397,0.945-4.632,0.905c-1.363-0.045-2.849-1.87-3.698-3.576C117.929,216.511,118.062,216.16,118.18,215.572
		L118.18,215.572z"/>
	<path style="fill-rule:evenodd;clip-rule:evenodd;fill:#FFFFFF;" d="M145.674,215.535c-1.04,0.948-2.078,1.649-3.276,1.691
		c-1.528,0.053-3.069-0.731-4.587-0.55c-3.393,0.405-5.297,3.511-5.248,6.507c0.945-1.752,3.084-3.199,5.177-3.25
		c1.995-0.049,3.396,0.945,4.632,0.904c1.363-0.045,2.849-1.87,3.698-3.575C145.925,216.474,145.792,216.123,145.674,215.535
		L145.674,215.535z"/>
	<path style="fill:#03124D;" d="M124.805,220.914c0.739,0,1.409,0.3,1.894,0.784c0.484,0.484,0.784,1.154,0.784,1.894
		c0,0.739-0.3,1.409-0.784,1.894c-0.484,0.484-1.154,0.784-1.894,0.784c-0.74,0-1.409-0.3-1.894-0.784
		c-0.484-0.484-0.784-1.154-0.784-1.894c0-0.74,0.3-1.409,0.784-1.894C123.396,221.214,124.066,220.914,124.805,220.914
		L124.805,220.914z M126.267,222.13c-0.374-0.374-0.891-0.606-1.462-0.606c-0.571,0-1.088,0.232-1.462,0.606
		c-0.374,0.374-0.606,0.891-0.606,1.462s0.232,1.088,0.606,1.462c0.374,0.374,0.891,0.605,1.462,0.605
		c0.571,0,1.088-0.231,1.462-0.605c0.374-0.374,0.606-0.891,0.606-1.462S126.641,222.504,126.267,222.13L126.267,222.13z"/>
	<path style="fill-rule:evenodd;clip-rule:evenodd;fill:#03124D;" d="M124.805,222.944c0.357,0,0.647,0.29,0.647,0.647
		s-0.29,0.647-0.647,0.647c-0.357,0-0.647-0.29-0.647-0.647S124.448,222.944,124.805,222.944L124.805,222.944z"/>
	<path style="fill:#03124D;" d="M139.092,220.846c-0.739,0-1.409,0.3-1.894,0.784c-0.485,0.484-0.784,1.154-0.784,1.894
		c0,0.739,0.3,1.409,0.784,1.894c0.484,0.484,1.154,0.784,1.894,0.784c0.739,0,1.409-0.3,1.894-0.784
		c0.484-0.484,0.784-1.154,0.784-1.894c0-0.74-0.3-1.409-0.784-1.894C140.501,221.146,139.831,220.846,139.092,220.846
		L139.092,220.846z M137.63,222.062c0.373-0.374,0.891-0.606,1.462-0.606c0.571,0,1.088,0.232,1.462,0.606
		c0.374,0.374,0.605,0.891,0.605,1.462c0,0.571-0.231,1.088-0.605,1.462c-0.374,0.374-0.891,0.606-1.462,0.606
		c-0.571,0-1.088-0.232-1.462-0.606c-0.374-0.374-0.606-0.891-0.606-1.462C137.024,222.953,137.256,222.436,137.63,222.062
		L137.63,222.062z"/>
	<path style="fill-rule:evenodd;clip-rule:evenodd;fill:#03124D;" d="M139.092,222.876c-0.358,0-0.647,0.29-0.647,0.647
		c0,0.357,0.289,0.647,0.647,0.647c0.357,0,0.647-0.29,0.647-0.647C139.738,223.166,139.449,222.876,139.092,222.876
		L139.092,222.876z"/>
	<path style="fill-rule:evenodd;clip-rule:evenodd;fill:#AA120D;" d="M113.46,222.612c0.404-1.175,1.314-1.19,1.241-3.465
		c-0.137-1.196-1.839-1.19-2.164,0.3c-0.142,3.452-0.392,11.151-0.039,10.384C112.855,229.058,113.026,223.7,113.46,222.612
		L113.46,222.612z"/>
	<path style="fill-rule:evenodd;clip-rule:evenodd;fill:#AA120D;" d="M149.79,222.612c-0.404-1.175-1.313-1.19-1.241-3.465
		c0.137-1.196,1.839-1.19,2.165,0.3c0.142,3.452,0.392,11.151,0.039,10.384C150.396,229.058,150.224,223.7,149.79,222.612
		L149.79,222.612z"/>
	<path style="fill-rule:evenodd;clip-rule:evenodd;fill:#03124D;" d="M132.161,206.903c0.719,0.629,1.328,1.562,1.759,2.604
		c0.439,1.063,0.696,2.246,0.696,3.339c0,1.081-0.295,2.349-0.746,3.47c-0.458,1.137-1.085,2.134-1.739,2.648
		c-0.118,0.093-0.284,0.085-0.392-0.013c-0.668-0.548-1.321-1.551-1.796-2.697c-0.453-1.093-0.75-2.326-0.75-3.43
		c0-1.175,0.21-2.338,0.66-3.389c0.418-0.976,1.042-1.854,1.896-2.554C131.873,206.779,132.052,206.791,132.161,206.903
		L132.161,206.903z"/>
	<path style="fill-rule:evenodd;clip-rule:evenodd;fill:#FFFFFF;" d="M133.357,209.738c-0.36-0.87-0.85-1.653-1.421-2.214
		c-0.674,0.605-1.176,1.34-1.522,2.148c-0.416,0.971-0.61,2.053-0.61,3.151c0,1.026,0.278,2.176,0.702,3.199
		c0.394,0.95,0.909,1.785,1.439,2.296c0.503-0.484,0.986-1.301,1.36-2.229c0.424-1.052,0.701-2.238,0.701-3.243
		C134.006,211.829,133.767,210.729,133.357,209.738L133.357,209.738z"/>
	<path style="fill-rule:evenodd;clip-rule:evenodd;fill:#03124D;" d="M131.923,210.556c0.568,0,1.079,0.27,1.446,0.704
		c0.355,0.421,0.575,0.999,0.575,1.635c0,0.635-0.22,1.214-0.575,1.635c-0.367,0.435-0.878,0.704-1.446,0.704
		s-1.08-0.27-1.446-0.704c-0.356-0.421-0.576-1-0.576-1.635c0-0.635,0.22-1.214,0.576-1.635
		C130.843,210.826,131.355,210.556,131.923,210.556L131.923,210.556z"/>
	<path style="fill-rule:evenodd;clip-rule:evenodd;fill:#FFFFFF;" d="M132.904,211.654c-0.254-0.301-0.601-0.487-0.981-0.487
		c-0.38,0-0.727,0.186-0.981,0.487c-0.265,0.315-0.43,0.753-0.43,1.241c0,0.488,0.164,0.927,0.43,1.241
		c0.254,0.301,0.601,0.487,0.981,0.487c0.38,0,0.727-0.187,0.981-0.487c0.266-0.315,0.43-0.753,0.43-1.241
		C133.333,212.408,133.169,211.969,132.904,211.654L132.904,211.654z"/>
	<path style="fill-rule:evenodd;clip-rule:evenodd;fill:#03124D;" d="M131.951,212.506c0.247,0,0.447,0.207,0.447,0.461
		c0,0.255-0.2,0.462-0.447,0.462c-0.247,0-0.447-0.207-0.447-0.462C131.505,212.713,131.704,212.506,131.951,212.506
		L131.951,212.506z"/>
	<path style="fill:#03124D;" d="M131.275,190.187l0.41-0.547c0.021-0.033,0.049-0.063,0.084-0.087
		c0.139-0.096,0.329-0.062,0.425,0.076c0.184,0.265,0.357,0.51,0.53,0.754c1.67,2.367,3.353,4.75,3.353,7.548
		c0,1.03-0.53,2.14-1.313,2.992c-0.769,0.836-1.792,1.432-2.808,1.474l-0.117,0.004v-0.001c-0.994,0-2.067-0.511-2.896-1.265
		c-0.833-0.757-1.43-1.77-1.471-2.769l0,0v-0.006l-0.001-0.069l-0.002-0.034C127.469,195.245,129.441,192.624,131.275,190.187
		L131.275,190.187z"/>
	<path style="fill:#FFFFFF;" d="M131.934,190.322l-0.172,0.23c-1.774,2.357-3.682,4.893-3.682,7.704l0,0.019l0.001,0.065h0
		c0.033,0.827,0.551,1.685,1.273,2.342c0.725,0.66,1.648,1.107,2.485,1.107v-0.001l0.093-0.001c0.845-0.034,1.716-0.552,2.384-1.278
		c0.686-0.746,1.151-1.704,1.151-2.578c0-2.606-1.627-4.91-3.242-7.197L131.934,190.322L131.934,190.322z"/>
	<path style="fill:#03124D;" d="M131.411,193.921l0.179-0.248c0.022-0.035,0.051-0.066,0.088-0.091
		c0.14-0.094,0.329-0.057,0.423,0.082l0.237,0.351l-0.001,0c0.761,1.124,1.529,2.255,1.529,3.604c0,0.519-0.254,1.075-0.629,1.499
		c-0.372,0.421-0.873,0.722-1.377,0.743l0,0h-0.006l-0.019,0.001l-0.034,0.002c-0.488,0-1.01-0.257-1.41-0.635
		c-0.401-0.379-0.689-0.889-0.711-1.396h0l0-0.006l0-0.022l-0.002-0.033C129.679,196.319,130.577,195.076,131.411,193.921
		L131.411,193.921z"/>
	<path style="fill:#FA2811;" d="M131.841,194.366c-0.76,1.052-1.551,2.181-1.551,3.405l-0.001,0.019l0,0.018
		c0.014,0.341,0.225,0.701,0.519,0.979c0.293,0.278,0.662,0.466,0.993,0.466l0.019,0h0.016v0c0.328-0.014,0.675-0.232,0.945-0.538
		c0.282-0.32,0.473-0.727,0.473-1.096C133.255,196.456,132.547,195.407,131.841,194.366L131.841,194.366z"/>
	<path style="fill:#03124D;" d="M115.885,196.229l0.054-0.56c0-0.032,0.007-0.066,0.021-0.097c0.056-0.127,0.204-0.185,0.331-0.129
		c0.243,0.107,0.47,0.204,0.695,0.302c2.188,0.944,4.392,1.895,5.593,3.859c0.442,0.724,0.546,1.73,0.362,2.664
		c-0.18,0.917-0.643,1.774-1.339,2.24l-0.081,0.053l0-0.001c-0.698,0.427-1.67,0.528-2.575,0.355
		c-0.909-0.175-1.764-0.629-2.221-1.313h0l-0.003-0.004l-0.031-0.048l-0.016-0.023C115.384,201.413,115.644,198.727,115.885,196.229
		L115.885,196.229z"/>
	<path style="fill:#FFFFFF;" d="M116.406,196.041l-0.022,0.235c-0.234,2.416-0.485,5.015,0.721,6.988l0.008,0.014l0.029,0.046h0
		c0.378,0.566,1.11,0.946,1.898,1.097c0.792,0.152,1.632,0.07,2.22-0.289l0-0.001l0.065-0.04c0.578-0.386,0.968-1.124,1.125-1.92
		c0.162-0.819,0.077-1.69-0.298-2.304c-1.118-1.829-3.249-2.749-5.364-3.661L116.406,196.041L116.406,196.041z"/>
	<path style="fill:#03124D;" d="M117.583,198.792l0.019-0.251c0-0.034,0.008-0.069,0.023-0.101c0.058-0.126,0.207-0.182,0.333-0.124
		l0.317,0.145l0,0c1.017,0.462,2.041,0.927,2.619,1.874c0.223,0.364,0.283,0.863,0.202,1.322c-0.081,0.455-0.303,0.882-0.648,1.112
		l0,0l-0.004,0.003l-0.014,0.009l-0.023,0.016c-0.342,0.209-0.819,0.253-1.262,0.159c-0.444-0.094-0.865-0.328-1.098-0.675l0,0
		l-0.003-0.004l-0.009-0.014l-0.015-0.023C117.396,201.218,117.493,199.961,117.583,198.792L117.583,198.792z"/>
	<path style="fill:#FA2811;" d="M118.076,198.92c-0.082,1.064-0.153,2.196,0.372,3.055l0.008,0.014l0.008,0.012
		c0.157,0.234,0.459,0.396,0.785,0.464c0.325,0.069,0.665,0.043,0.897-0.099l0.014-0.008l0.011-0.007l0,0
		c0.225-0.151,0.374-0.452,0.432-0.783c0.061-0.346,0.021-0.714-0.138-0.972C119.965,199.78,119.018,199.347,118.076,198.92
		L118.076,198.92z"/>
	<path style="fill:#03124D;" d="M107.525,203.422l-0.023-0.562c-0.004-0.032-0.001-0.066,0.008-0.1
		c0.038-0.133,0.177-0.211,0.311-0.172c0.255,0.073,0.493,0.139,0.729,0.205c2.295,0.641,4.607,1.287,6.061,3.072
		c0.536,0.657,0.774,1.641,0.717,2.59c-0.056,0.933-0.399,1.845-1.026,2.399l-0.072,0.063l-0.001-0.001
		c-0.634,0.517-1.584,0.748-2.504,0.698c-0.924-0.051-1.832-0.386-2.377-1.002l0,0l-0.003-0.004l-0.036-0.043l-0.019-0.021
		C107.726,208.625,107.622,205.929,107.525,203.422L107.525,203.422z"/>
	<path style="fill:#FFFFFF;" d="M108.016,203.165l0.009,0.236c0.094,2.426,0.194,5.035,1.655,6.827l0.009,0.013l0.035,0.041h0
		c0.45,0.509,1.227,0.788,2.029,0.832c0.805,0.044,1.627-0.15,2.161-0.585l-0.001-0.001l0.059-0.049
		c0.521-0.461,0.807-1.244,0.856-2.054c0.05-0.832-0.151-1.685-0.606-2.243c-1.355-1.662-3.589-2.286-5.808-2.906L108.016,203.165
		L108.016,203.165z"/>
	<path style="fill:#03124D;" d="M109.553,205.732l-0.015-0.251c-0.004-0.034-0.001-0.069,0.009-0.103
		c0.04-0.133,0.18-0.208,0.313-0.167l0.333,0.1l0,0.001c1.07,0.321,2.147,0.644,2.848,1.504c0.27,0.331,0.396,0.818,0.378,1.282
		c-0.018,0.462-0.182,0.914-0.492,1.19v0l-0.004,0.004l-0.012,0.01l-0.021,0.018c-0.311,0.254-0.777,0.361-1.229,0.328
		c-0.452-0.034-0.901-0.209-1.179-0.522l0,0l-0.003-0.004l-0.011-0.013l-0.019-0.021
		C109.694,208.161,109.621,206.903,109.553,205.732L109.553,205.732z"/>
	<path style="fill:#FA2811;" d="M110.058,205.793c0.063,1.066,0.144,2.197,0.78,2.978l0.009,0.013l0.01,0.011
		c0.186,0.21,0.508,0.33,0.84,0.354c0.331,0.025,0.665-0.047,0.875-0.219l0.013-0.009l0.01-0.009l0,0
		c0.203-0.18,0.31-0.499,0.323-0.834c0.014-0.35-0.076-0.71-0.267-0.945C112.046,206.391,111.049,206.09,110.058,205.793
		L110.058,205.793z"/>
	<path style="fill:#03124D;" d="M146.933,196.346l-0.054-0.559c0-0.033-0.007-0.066-0.021-0.098
		c-0.056-0.126-0.204-0.184-0.331-0.129c-0.243,0.107-0.47,0.204-0.695,0.302c-2.188,0.944-4.392,1.895-5.593,3.859
		c-0.442,0.724-0.546,1.73-0.362,2.664c0.181,0.916,0.643,1.774,1.339,2.239l0.081,0.053l0-0.001
		c0.698,0.427,1.67,0.528,2.575,0.355c0.909-0.175,1.764-0.629,2.22-1.313v0l0.003-0.004l0.031-0.048l0.016-0.023
		C147.434,201.529,147.175,198.843,146.933,196.346L146.933,196.346z"/>
	<path style="fill:#FFFFFF;" d="M146.412,196.158l0.023,0.235c0.234,2.416,0.485,5.014-0.721,6.988l-0.008,0.014l-0.029,0.045h0
		c-0.378,0.566-1.11,0.946-1.898,1.098c-0.792,0.152-1.632,0.07-2.22-0.289l0-0.001l-0.065-0.04
		c-0.579-0.387-0.968-1.124-1.125-1.92c-0.162-0.818-0.077-1.69,0.298-2.304c1.118-1.829,3.249-2.748,5.364-3.661L146.412,196.158
		L146.412,196.158z"/>
	<path style="fill:#03124D;" d="M145.235,198.908l-0.019-0.251c0-0.034-0.008-0.068-0.022-0.101
		c-0.058-0.126-0.207-0.181-0.333-0.124l-0.317,0.144v0.001c-1.016,0.462-2.04,0.927-2.619,1.874
		c-0.223,0.364-0.283,0.864-0.202,1.322c0.081,0.455,0.303,0.881,0.648,1.113v0l0.004,0.003l0.014,0.009l0.023,0.016
		c0.342,0.21,0.819,0.253,1.262,0.159c0.444-0.094,0.865-0.329,1.098-0.675h0l0.003-0.004l0.009-0.015l0.016-0.023
		C145.422,201.335,145.325,200.077,145.235,198.908L145.235,198.908z"/>
	<path style="fill:#FA2811;" d="M144.742,199.037c0.082,1.064,0.153,2.196-0.373,3.055l-0.008,0.013l-0.008,0.013
		c-0.156,0.233-0.459,0.395-0.784,0.464c-0.325,0.069-0.665,0.043-0.897-0.099l-0.013-0.008l-0.011-0.007v-0.001
		c-0.225-0.15-0.374-0.452-0.432-0.783c-0.061-0.345-0.021-0.713,0.138-0.972C142.853,199.897,143.8,199.464,144.742,199.037
		L144.742,199.037z"/>
	<path style="fill:#03124D;" d="M155.293,203.539l0.022-0.562c0.004-0.032,0.001-0.066-0.008-0.099
		c-0.038-0.133-0.177-0.21-0.31-0.172c-0.255,0.073-0.493,0.139-0.729,0.206c-2.295,0.641-4.607,1.286-6.061,3.071
		c-0.536,0.657-0.774,1.641-0.717,2.591c0.056,0.932,0.399,1.845,1.026,2.399l0.072,0.063l0.001-0.001
		c0.635,0.517,1.584,0.748,2.504,0.698c0.924-0.05,1.832-0.386,2.377-1.002l0,0l0.003-0.004l0.036-0.043l0.019-0.021
		C155.092,208.742,155.196,206.046,155.293,203.539L155.293,203.539z"/>
	<path style="fill:#FFFFFF;" d="M154.802,203.282l-0.009,0.236c-0.094,2.425-0.194,5.034-1.655,6.827l-0.009,0.013l-0.035,0.041l0,0
		c-0.45,0.51-1.227,0.789-2.029,0.833c-0.805,0.044-1.627-0.15-2.161-0.585l0.001-0.001l-0.059-0.049
		c-0.521-0.461-0.807-1.243-0.856-2.054c-0.05-0.832,0.151-1.685,0.606-2.243c1.354-1.662,3.589-2.286,5.808-2.906L154.802,203.282
		L154.802,203.282z"/>
	<path style="fill:#03124D;" d="M153.265,205.849l0.015-0.252c0.004-0.034,0.001-0.069-0.009-0.104
		c-0.04-0.132-0.18-0.207-0.313-0.167l-0.333,0.101l0,0.001c-1.07,0.32-2.147,0.644-2.848,1.504
		c-0.27,0.331-0.396,0.817-0.378,1.282c0.018,0.462,0.182,0.914,0.492,1.189h0l0.004,0.003l0.012,0.01l0.021,0.019
		c0.311,0.253,0.777,0.361,1.229,0.327c0.452-0.033,0.901-0.209,1.179-0.521v0l0.003-0.004l0.011-0.014l0.019-0.02
		C153.124,208.278,153.197,207.019,153.265,205.849L153.265,205.849z"/>
	<path style="fill:#FA2811;" d="M152.76,205.91c-0.063,1.066-0.144,2.197-0.78,2.978l-0.009,0.013l-0.01,0.011
		c-0.186,0.21-0.508,0.33-0.84,0.355c-0.331,0.024-0.665-0.047-0.875-0.219l-0.013-0.009l-0.01-0.009l0,0
		c-0.202-0.18-0.31-0.499-0.323-0.834c-0.014-0.351,0.076-0.71,0.267-0.945C150.772,206.508,151.769,206.207,152.76,205.91
		L152.76,205.91z"/>
	<path style="fill:#1D1D1B;" d="M126.584,250.889c-1.114-0.21-2.205-0.482-3.25-0.807c-1.931-0.6-3.71-1.376-5.187-2.25
		c-0.642-0.337-1.289-0.699-1.941-1.088c-1.364-0.147-3.114-0.266-4.729-0.344c-1.788-0.086-3.411-0.12-4.158-0.08
		c-0.31,0.016-0.648,0.048-1.02,0.081c-2.292,0.209-5.796,0.528-9.288-1.627c-0.105-0.057-0.171-0.174-0.158-0.3
		c0.018-0.167,0.168-0.288,0.335-0.271c3.815,0.409,5.848,0.093,7.021-0.09c0.437-0.068,0.762-0.119,1.032-0.111
		c0.175,0.005,0.488,0.005,0.898,0.005c1.512,0.001,4.333,0.003,6.499,0.247c-0.95-0.58-2.241-0.976-3.847-1.213
		c-2.215-0.327-5.017-0.346-8.347-0.117c-0.438,0.03-0.914,0.072-1.39,0.114c-3.492,0.309-6.986,0.617-10.315-2.817h0
		c-0.075-0.077-0.107-0.191-0.073-0.301c0.049-0.16,0.219-0.251,0.379-0.202c3.69,1.128,6.776,0.882,10.007,0.625
		c0.381-0.031,0.764-0.061,1.195-0.093c2.111-0.155,4.06-0.059,5.882,0.22c1.473,0.226,2.866,0.573,4.193,1.007
		c-1.052-1.242-2.601-2.199-4.666-2.817c-2.394-0.716-5.478-0.977-9.281-0.698c-2.47,0.181-5.31,0.261-7.899-0.294
		c-2.629-0.563-4.995-1.776-6.462-4.185h0c-0.051-0.084-0.061-0.192-0.016-0.287c0.071-0.152,0.252-0.218,0.404-0.147
		c2.053,0.965,4.287,1.462,6.52,1.717c2.25,0.257,4.494,0.27,6.555,0.269c2.11-0.002,4.22,0.075,6.37,0.44
		c1.928,0.328,3.889,0.887,5.911,1.829c-0.68-1.174-2.2-2.207-4.498-3.031c-2.718-0.975-6.5-1.642-11.25-1.89
		c-0.682-0.036-1.368-0.054-2.064-0.073c-4.68-0.126-9.836-0.265-12.489-5.204c-0.053-0.085-0.063-0.194-0.017-0.292
		c0.072-0.152,0.253-0.217,0.405-0.146c2.111,1.002,4.362,1.589,6.659,1.905c2.309,0.318,4.666,0.364,6.98,0.287
		c2.543-0.085,5.03,0.364,7.495,1.161c2.194,0.71,4.369,1.694,6.552,2.823c-0.846-1.38-2.918-3.043-5.823-4.269
		c-2.698-1.138-6.104-1.885-9.905-1.661c-3.474,0.205-7.58-0.045-10.946-1.541c-2.582-1.147-4.728-3.023-5.827-5.975l0,0
		c-0.029-0.078-0.027-0.168,0.015-0.247c0.077-0.149,0.261-0.207,0.41-0.129c2.261,1.182,4.86,2.331,7.512,3.084
		c2.128,0.604,4.29,0.951,6.333,0.854c3.496-0.167,6.561,0.209,9.556,1.277c2.758,0.984,5.453,2.553,8.367,4.822
		c-0.662-1.65-2.541-3.791-5.81-5.605c-2.887-1.602-6.846-2.935-11.993-3.436c-0.895-0.087-1.856-0.143-2.839-0.201
		c-6.367-0.371-13.671-0.797-14.664-10.262h0c-0.009-0.09,0.022-0.184,0.093-0.252c0.122-0.116,0.315-0.111,0.431,0.011
		c2.603,2.723,4.588,4.343,6.756,5.319c2.167,0.975,4.54,1.318,7.921,1.486c5.208,0.259,9.139,1.1,12.299,2.567
		c2.871,1.333,5.102,3.18,7.069,5.574c-0.32-2.391-1.763-4.692-4.54-6.653c-2.857-2.016-7.115-3.67-13-4.693
		c-1.174-0.204-2.454-0.343-3.772-0.485c-7.075-0.766-15.226-1.648-14.372-12.956l0,0c0.006-0.081,0.045-0.161,0.115-0.216
		c0.131-0.104,0.324-0.082,0.428,0.049c2.626,3.305,5.478,5.493,8.541,6.95v0c3.067,1.459,6.351,2.189,9.831,2.575
		c4.185,0.464,7.532,1.499,10.266,2.948c2.432,1.288,4.379,2.904,6.001,4.738c-0.3-2.004-1.624-4.07-3.726-5.889
		c-2.36-2.043-5.692-3.766-9.652-4.744c-1.821-0.45-3.855-0.715-5.931-0.987c-5.764-0.753-11.849-1.549-14.846-6.39
		c-0.776-1.254-1.276-2.758-1.445-4.618l-0.001-0.011c-0.167-1.845-0.008-4.042,0.528-6.698c0.322-1.597,0.835-2.614,1.368-3.076
		c0.273-0.237,0.56-0.343,0.843-0.324c0.288,0.02,0.554,0.167,0.779,0.437c0.42,0.502,0.72,1.487,0.752,2.916
		c0.257,11.475,9.546,12.586,16.876,13.463l0.262,0.031c4.846,0.58,9.127,2.167,12.131,4.589c2.827,2.279,4.527,5.295,4.516,8.907
		v0.012v0.005c-0.077,3.468-0.077,6.793,0.17,9.899c0.246,3.088,0.736,5.952,1.638,8.512c0.898,2.547,1.922,5.153,3.25,7.496
		c1.318,2.325,2.937,4.398,5.032,5.908c0.011,0.007,0.022,0.014,0.031,0.023c0.544,0.456,1.177,0.898,1.883,1.317
		c2.059,1.078,4.066,1.887,6.025,2.45c0.8,0.23,1.59,0.419,2.373,0.568c1.641,0.3,3.328,0.458,4.982,0.432
		c0.014-0.002,0.028-0.002,0.042-0.002h0.001l0.006,0l0.029,0l0.029,0l0.007,0h0.001c0.014,0,0.028,0,0.042,0.002
		c1.654,0.025,3.341-0.133,4.982-0.432c0.783-0.149,1.573-0.338,2.373-0.568c1.958-0.563,3.966-1.373,6.025-2.45
		c0.706-0.419,1.339-0.861,1.883-1.317c0.01-0.009,0.02-0.016,0.031-0.023c2.095-1.511,3.714-3.583,5.032-5.908
		c1.328-2.343,2.353-4.949,3.25-7.496c0.903-2.561,1.393-5.424,1.638-8.512c0.247-3.106,0.247-6.431,0.17-9.899v-0.005v-0.012
		c-0.011-3.613,1.688-6.628,4.516-8.907c3.004-2.421,7.285-4.008,12.131-4.589l0.262-0.031c7.33-0.877,16.619-1.988,16.876-13.463
		c0.032-1.428,0.332-2.413,0.752-2.916c0.226-0.27,0.492-0.418,0.779-0.437c0.283-0.019,0.57,0.087,0.843,0.324
		c0.533,0.462,1.046,1.479,1.368,3.076c0.536,2.656,0.694,4.854,0.528,6.698l-0.001,0.011c-0.17,1.861-0.669,3.364-1.445,4.618
		c-2.997,4.841-9.082,5.637-14.846,6.39c-2.075,0.271-4.11,0.537-5.931,0.987c-3.96,0.978-7.292,2.701-9.652,4.744
		c-2.102,1.819-3.427,3.884-3.726,5.889c1.622-1.834,3.569-3.45,6.001-4.738c2.734-1.449,6.081-2.484,10.266-2.948
		c3.48-0.386,6.764-1.116,9.832-2.575l0,0c3.062-1.457,5.915-3.645,8.541-6.95c0.104-0.132,0.297-0.154,0.428-0.049
		c0.069,0.055,0.108,0.134,0.114,0.216l0,0c0.855,11.307-7.297,12.19-14.371,12.956c-1.318,0.142-2.599,0.281-3.772,0.485
		c-5.886,1.023-10.144,2.677-13.001,4.693c-2.777,1.961-4.22,4.262-4.54,6.653c1.968-2.394,4.198-4.24,7.069-5.574
		c3.16-1.467,7.091-2.308,12.299-2.567c3.38-0.168,5.754-0.511,7.92-1.486c2.169-0.976,4.153-2.596,6.756-5.319
		c0.116-0.122,0.309-0.127,0.43-0.011c0.071,0.068,0.102,0.161,0.093,0.252l0,0c-0.993,9.465-8.297,9.891-14.664,10.262
		c-0.983,0.058-1.943,0.113-2.839,0.201c-5.148,0.501-9.107,1.834-11.993,3.436c-3.269,1.814-5.148,3.955-5.81,5.605
		c2.914-2.269,5.608-3.838,8.367-4.822c2.995-1.067,6.059-1.444,9.556-1.277c2.043,0.098,4.204-0.25,6.332-0.854
		c2.653-0.753,5.252-1.902,7.512-3.084c0.149-0.077,0.333-0.02,0.41,0.129c0.042,0.079,0.044,0.169,0.015,0.247h0
		c-1.099,2.952-3.245,4.827-5.827,5.975c-3.366,1.496-7.472,1.746-10.946,1.541c-3.801-0.224-7.208,0.522-9.905,1.661
		c-2.905,1.226-4.977,2.889-5.823,4.269c2.183-1.129,4.357-2.113,6.552-2.823c2.465-0.797,4.951-1.246,7.495-1.161
		c2.314,0.077,4.672,0.031,6.98-0.287c2.297-0.316,4.547-0.903,6.659-1.905c0.152-0.072,0.334-0.006,0.406,0.146
		c0.045,0.097,0.036,0.206-0.018,0.292c-2.654,4.939-7.809,5.079-12.489,5.204c-0.696,0.019-1.382,0.037-2.064,0.073
		c-4.75,0.248-8.532,0.915-11.25,1.89c-2.298,0.823-3.818,1.857-4.498,3.031c2.022-0.941,3.983-1.501,5.911-1.829
		c2.15-0.365,4.259-0.442,6.37-0.44c2.061,0.001,4.306-0.011,6.556-0.269c2.232-0.255,4.466-0.752,6.52-1.717
		c0.152-0.071,0.333-0.005,0.404,0.147c0.045,0.095,0.036,0.203-0.016,0.287h0c-1.467,2.409-3.834,3.622-6.462,4.185
		c-2.59,0.555-5.429,0.475-7.899,0.294c-3.803-0.279-6.887-0.018-9.281,0.698c-2.065,0.617-3.614,1.575-4.666,2.817
		c1.327-0.433,2.719-0.781,4.193-1.007c1.822-0.28,3.771-0.375,5.882-0.22c0.43,0.031,0.813,0.062,1.195,0.093
		c3.231,0.257,6.317,0.504,10.007-0.625c0.161-0.049,0.331,0.042,0.379,0.202c0.033,0.11,0.001,0.224-0.073,0.301h0
		c-3.329,3.434-6.822,3.126-10.315,2.817c-0.475-0.042-0.951-0.084-1.39-0.114c-3.329-0.229-6.131-0.21-8.347,0.117
		c-1.606,0.237-2.897,0.633-3.847,1.213c2.166-0.244,4.987-0.246,6.499-0.247c0.41,0,0.723,0,0.898-0.005
		c0.27-0.008,0.594,0.043,1.032,0.111c1.174,0.183,3.207,0.499,7.021,0.09c0.167-0.018,0.318,0.104,0.335,0.271
		c0.014,0.126-0.053,0.243-0.158,0.3c-3.492,2.155-6.996,1.836-9.288,1.627c-0.371-0.033-0.71-0.065-1.02-0.081
		c-0.748-0.04-2.37-0.006-4.158,0.08c-1.615,0.077-3.365,0.197-4.729,0.344c-0.652,0.389-1.299,0.751-1.941,1.088
		c-1.477,0.874-3.256,1.65-5.187,2.25c-1.045,0.324-2.137,0.597-3.25,0.807c-1.813,0.356-3.585,0.505-5.316,0.468
		C130.169,251.395,128.397,251.245,126.584,250.889L126.584,250.889z"/>
	<path style="fill:#03124D;" d="M115.675,246.078c-1.936-1.526-3.457-3.518-4.709-5.727c-1.352-2.386-2.389-5.021-3.295-7.594
		c-0.922-2.617-1.422-5.531-1.672-8.667c-0.247-3.117-0.247-6.464-0.17-9.959c0.013-3.414-1.602-6.272-4.289-8.437
		c-2.914-2.349-7.086-3.891-11.821-4.458l-0.262-0.031c-7.562-0.904-17.144-2.051-17.414-14.057
		c-0.029-1.278-0.272-2.13-0.611-2.536c-0.115-0.138-0.236-0.213-0.352-0.22c-0.121-0.009-0.259,0.05-0.405,0.176
		c-0.441,0.382-0.876,1.281-1.169,2.735c-0.524,2.597-0.68,4.738-0.518,6.524v0.004c0.159,1.764,0.629,3.182,1.358,4.361
		c2.845,4.594,8.782,5.371,14.407,6.106c2.097,0.274,4.152,0.543,5.998,0.999c4.055,1.002,7.475,2.773,9.905,4.875
		c2.554,2.209,4.021,4.795,4.001,7.256c-0.001,0.168-0.139,0.303-0.307,0.302c-0.094-0.001-0.178-0.045-0.234-0.113v0
		c-1.689-2.069-3.754-3.884-6.417-5.296c-2.67-1.415-5.945-2.426-10.049-2.881c-3.542-0.393-6.889-1.139-10.025-2.631l-0.001,0v0
		c-2.948-1.403-5.705-3.464-8.256-6.51c-0.376,9.98,7.238,10.806,13.871,11.524c1.332,0.144,2.625,0.284,3.81,0.49
		c5.981,1.04,10.323,2.73,13.248,4.795c3.325,2.347,4.838,5.183,4.866,8.112c0.001,0.168-0.134,0.305-0.302,0.306
		c-0.099,0.001-0.189-0.046-0.244-0.119h0c-2.06-2.698-4.381-4.739-7.455-6.167c-3.09-1.435-6.948-2.258-12.073-2.512
		c-3.458-0.172-5.894-0.527-8.143-1.539c-2.062-0.929-3.949-2.404-6.302-4.792c1.308,8.072,8.059,8.466,13.971,8.81
		c0.981,0.057,1.94,0.113,2.863,0.203c5.241,0.51,9.281,1.872,12.232,3.51c4.063,2.255,6.086,5.059,6.363,6.916
		c0.024,0.167-0.091,0.322-0.257,0.346c-0.093,0.014-0.182-0.016-0.247-0.073c-3.141-2.539-5.996-4.257-8.914-5.298
		c-2.918-1.041-5.909-1.407-9.324-1.244c-2.116,0.102-4.341-0.256-6.526-0.875c-2.408-0.683-4.773-1.688-6.885-2.75
		c1.102,2.348,2.973,3.891,5.185,4.874c3.26,1.449,7.266,1.69,10.664,1.489c3.902-0.23,7.402,0.538,10.177,1.709
		c3.644,1.538,6.059,3.797,6.525,5.429c0.046,0.162-0.048,0.331-0.21,0.377c-0.079,0.022-0.159,0.012-0.227-0.024l0,0
		c-2.425-1.289-4.829-2.416-7.24-3.195c-2.404-0.777-4.823-1.215-7.29-1.133c-2.344,0.078-4.735,0.031-7.08-0.292
		c-2.038-0.28-4.041-0.769-5.949-1.562c2.609,3.848,7.25,3.973,11.486,4.086c0.714,0.019,1.417,0.038,2.081,0.073
		c4.809,0.251,8.651,0.931,11.424,1.926c2.949,1.057,4.716,2.485,5.185,4.152c0.045,0.162-0.049,0.33-0.211,0.376
		c-0.077,0.022-0.154,0.012-0.22-0.022h0c-2.225-1.131-4.369-1.773-6.472-2.13c-2.114-0.36-4.191-0.434-6.269-0.433
		c-2.084,0.001-4.354-0.012-6.625-0.271c-1.933-0.221-3.872-0.621-5.707-1.341c1.371,1.677,3.32,2.583,5.457,3.041
		c2.518,0.54,5.303,0.46,7.73,0.283c3.878-0.284,7.034-0.015,9.498,0.722c2.623,0.785,4.47,2.101,5.575,3.844
		c0.09,0.142,0.048,0.331-0.094,0.421c-0.088,0.056-0.194,0.061-0.284,0.023c-1.561-0.566-3.213-1.018-4.987-1.29
		c-1.781-0.274-3.686-0.367-5.748-0.215c-0.369,0.027-0.782,0.06-1.19,0.093c-2.932,0.234-5.746,0.458-9.02-0.322
		c2.864,2.335,5.893,2.069,8.922,1.801c0.455-0.04,0.91-0.081,1.401-0.114c3.371-0.232,6.216-0.212,8.475,0.122
		c2.303,0.339,4.012,1.007,5.068,2.067c0.118,0.119,0.118,0.312-0.001,0.431c-0.073,0.072-0.175,0.101-0.27,0.083l-0.002,0l-0.003,0
		c-2.149-0.4-5.755-0.402-7.532-0.403c-0.419,0-0.74,0-0.915-0.005c-0.217-0.006-0.518,0.041-0.922,0.103
		c-1.038,0.162-2.733,0.426-5.675,0.227c2.884,1.285,5.693,1.029,7.618,0.854c0.387-0.035,0.741-0.068,1.044-0.084
		c0.766-0.041,2.411-0.007,4.218,0.08C112.907,245.859,114.408,245.958,115.675,246.078L115.675,246.078z"/>
	<path style="fill:#03124D;" d="M148.126,246.078c1.936-1.526,3.457-3.518,4.709-5.727c1.352-2.386,2.389-5.021,3.296-7.594
		c0.922-2.617,1.422-5.531,1.671-8.667c0.248-3.117,0.248-6.464,0.17-9.959c-0.013-3.414,1.602-6.272,4.289-8.437
		c2.914-2.349,7.086-3.891,11.821-4.458l0.262-0.031c7.563-0.904,17.144-2.051,17.414-14.057c0.029-1.278,0.272-2.13,0.611-2.536
		c0.116-0.138,0.236-0.213,0.352-0.22c0.121-0.009,0.259,0.05,0.405,0.176c0.441,0.382,0.876,1.281,1.169,2.735
		c0.524,2.597,0.68,4.738,0.519,6.524l0,0.004c-0.159,1.764-0.629,3.182-1.358,4.361c-2.845,4.594-8.782,5.371-14.407,6.106
		c-2.097,0.274-4.151,0.543-5.998,0.999c-4.055,1.002-7.475,2.773-9.905,4.875c-2.553,2.209-4.021,4.795-4.001,7.256
		c0.001,0.168,0.139,0.303,0.306,0.302c0.094-0.001,0.178-0.045,0.234-0.113l0,0c1.689-2.069,3.753-3.884,6.417-5.296
		c2.67-1.415,5.945-2.426,10.049-2.881c3.541-0.393,6.889-1.139,10.025-2.631l0.001,0v0c2.948-1.403,5.705-3.464,8.256-6.51
		c0.377,9.98-7.238,10.806-13.871,11.524c-1.332,0.144-2.625,0.284-3.81,0.49c-5.982,1.04-10.323,2.73-13.249,4.795
		c-3.325,2.347-4.838,5.183-4.866,8.112c-0.001,0.168,0.134,0.305,0.301,0.306c0.099,0.001,0.189-0.046,0.244-0.119h0
		c2.06-2.698,4.381-4.739,7.455-6.167c3.09-1.435,6.948-2.258,12.073-2.512c3.457-0.172,5.894-0.527,8.142-1.539
		c2.062-0.929,3.949-2.404,6.302-4.792c-1.308,8.072-8.059,8.466-13.971,8.81c-0.981,0.057-1.94,0.113-2.862,0.203
		c-5.242,0.51-9.281,1.872-12.232,3.51c-4.063,2.255-6.086,5.059-6.363,6.916c-0.024,0.167,0.091,0.322,0.257,0.346
		c0.093,0.014,0.182-0.016,0.247-0.073c3.141-2.539,5.996-4.257,8.915-5.298c2.918-1.041,5.909-1.407,9.324-1.244
		c2.115,0.102,4.341-0.256,6.526-0.875c2.409-0.683,4.773-1.688,6.885-2.75c-1.102,2.348-2.973,3.891-5.184,4.874
		c-3.26,1.449-7.267,1.69-10.665,1.489c-3.901-0.23-7.402,0.538-10.177,1.709c-3.644,1.538-6.059,3.797-6.525,5.429
		c-0.046,0.162,0.048,0.331,0.21,0.377c0.079,0.022,0.159,0.012,0.226-0.024h0c2.425-1.289,4.828-2.416,7.239-3.195
		c2.404-0.777,4.823-1.215,7.29-1.133c2.344,0.078,4.735,0.031,7.08-0.292c2.038-0.28,4.041-0.769,5.949-1.562
		c-2.609,3.848-7.25,3.973-11.486,4.086c-0.714,0.019-1.417,0.038-2.081,0.073c-4.809,0.251-8.651,0.931-11.424,1.926
		c-2.949,1.057-4.716,2.485-5.185,4.152c-0.046,0.162,0.049,0.33,0.211,0.376c0.076,0.022,0.154,0.012,0.221-0.022l0,0
		c2.226-1.131,4.37-1.773,6.472-2.13c2.114-0.36,4.191-0.434,6.269-0.433c2.084,0.001,4.354-0.012,6.625-0.271
		c1.933-0.221,3.872-0.621,5.707-1.341c-1.372,1.677-3.32,2.583-5.458,3.041c-2.518,0.54-5.303,0.46-7.73,0.283
		c-3.878-0.284-7.034-0.015-9.498,0.722c-2.623,0.785-4.47,2.101-5.575,3.844c-0.09,0.142-0.048,0.331,0.094,0.421
		c0.088,0.056,0.194,0.061,0.284,0.023c1.561-0.566,3.213-1.018,4.987-1.29c1.781-0.274,3.686-0.367,5.748-0.215
		c0.369,0.027,0.782,0.06,1.19,0.093c2.932,0.234,5.746,0.458,9.02-0.322c-2.863,2.335-5.893,2.069-8.921,1.801
		c-0.454-0.04-0.91-0.081-1.401-0.114c-3.371-0.232-6.216-0.212-8.476,0.122c-2.303,0.339-4.012,1.007-5.067,2.067
		c-0.119,0.119-0.118,0.312,0.001,0.431c0.073,0.072,0.175,0.101,0.27,0.083l0.002,0l0.003,0c2.149-0.4,5.755-0.402,7.532-0.403
		c0.419,0,0.74,0,0.915-0.005c0.217-0.006,0.517,0.041,0.923,0.103c1.038,0.162,2.733,0.426,5.675,0.227
		c-2.885,1.285-5.693,1.029-7.618,0.854c-0.387-0.035-0.741-0.068-1.044-0.084c-0.766-0.041-2.411-0.007-4.218,0.08
		C150.893,245.859,149.392,245.958,148.126,246.078L148.126,246.078z"/>
	<polygon style="fill-rule:evenodd;clip-rule:evenodd;fill:#A3070B;" points="37.232,254.334 227.667,254.334 193.775,315.255 
		25,315.255 37.232,254.334 	"/>
	<polygon style="fill-rule:evenodd;clip-rule:evenodd;fill:#03124D;" points="212.182,281.861 193.775,315.255 25,315.255 
		31.62,281.861 212.182,281.861 	"/>
	<path style="fill:#03124D;" d="M250.91,191.898h11.05l15.299,38.114l7.174-38.114h10.876l-10.769,55.632h-11.686l-14.589-37.575
		l-7.387,37.575h-11.195L250.91,191.898L250.91,191.898z M317.657,315.706l21.28-107.273h10.903l-0.682,4.429
		c5.189-5.535,7.981-5.823,11.878-6.12c8.056-0.614,15.186,6.378,14.173,20.487c-0.909,12.652-9.259,21.303-18.99,22.012
		c-4.471,0.326-9.144-1.019-13.313-4.41l-13.782,70.874H317.657L317.657,315.706z M345.876,226.761
		c-2.486,8.842,1.595,13.625,6.843,14.288c4.925,0.622,9.768-3.98,11.305-12.29c1.537-8.311-2.115-12.965-6.477-12.965
		C353.416,215.793,348.362,217.919,345.876,226.761L345.876,226.761z M392.84,219.014l-10.507,0.009
		c2.006-8.913,10.439-12.925,19.271-12.794c10.946,0.162,18.195,3.902,15.436,16.941l-3.23,15.264
		c-0.401,1.899-0.606,3.397-0.623,4.477c-0.018,1.079-0.569,2.94-0.21,4.619h-10.478c-0.561-2.017-0.506-2.447-0.35-4.523
		c-2.431,2.664-7.98,4.989-13.171,5.006c-5.833,0.02-11.655-2.887-11.205-11.478c0.868-16.602,20.308-12.056,26.605-14.945
		c6.891-3.162,2.005-8.708-3.3-8.375C398.312,213.389,393.811,214.369,392.84,219.014L392.84,219.014z M405.551,227.304
		c-4.44,1.694-16.504-0.025-17.118,7.431c-0.316,3.846,3.075,5.525,5.918,5.525C399.652,240.26,404.999,234.698,405.551,227.304
		L405.551,227.304z M428.877,192.595h10.44l-11.47,54.934h-9.655L428.877,192.595L428.877,192.595z M256.669,271.741l-10.955,22.617
		h13.592L256.669,271.741L256.669,271.741z M241.414,303.235l-6.04,12.471h-13.105l30.101-55.957h13.145l7.87,55.957h-11.591
		l-1.454-12.471H241.414L241.414,303.235z M283.124,275.983h10.88l-8.363,39.723h-10.413L283.124,275.983L283.124,275.983z
		 M286.463,259.749h10.724l-1.715,9.022h-10.724L286.463,259.749L286.463,259.749z M341.99,275.983h10.88l-8.364,39.723h-10.413
		L341.99,275.983L341.99,275.983z M345.328,259.749h10.724l-1.716,9.022h-10.724L345.328,259.749L345.328,259.749z M300.092,276.108
		l9.97-0.125l-1.073,5.878c3.261-5.522,6.634-5.878,12.754-5.879l-2.491,11.194c-4.387-0.725-10.265-0.188-11.809,6.708
		l-4.886,21.822h-10.771L300.092,276.108L300.092,276.108z M437.629,301.335l9.594,0.104c-1.146,9.914,12.197,7.088,13.324,2.699
		c1.334-5.193-5.945-6.47-8.007-7.603c-4.963-2.729-11.023-4.479-10.391-11.285c1.475-15.866,31.829-15.893,32.85-0.272
		l-9.373,0.051c0.003-0.593-1.21-5.319-6.579-5.008c-6.201,0.36-7.944,6.237,1.125,9.302c8.833,2.986,12.928,8.503,11.617,14.153
		c-2.099,9.042-9.662,12.229-17.345,12.229C445.31,315.706,435.775,311.753,437.629,301.335L437.629,301.335z M405.555,297.791
		c-2.876,9.627,11.918,15.73,17.716,5.196l10.358-0.022c-3.959,9.492-10.931,13.253-21.195,13.253
		c-11.624,0-19.859-8.083-17.173-21.974c2.113-10.932,9.191-19.546,22.907-19.546c16.246,0,20.055,10.464,17.295,23.082
		L405.555,297.791L405.555,297.791z M425.143,290.621c1.984-12.839-16.316-9.955-16.947,0L425.143,290.621L425.143,290.621z
		 M302.194,231.003c-2.876,9.627,11.918,15.73,17.716,5.197l10.357-0.023c-3.958,9.492-10.626,13.062-20.889,13.062
		c-11.624,0-20.165-7.891-17.479-21.782c2.114-10.932,9.191-19.902,22.907-19.902c16.246,0,20.055,10.82,17.295,23.438
		L302.194,231.003L302.194,231.003z M321.782,223.833c1.984-12.839-16.316-9.955-16.947,0L321.782,223.833L321.782,223.833z
		 M359.211,275.955l10.542,0.027l-1.281,5.878c12.182-13.639,25.855-5.268,23.115,8.571l-5.005,25.274h-10.17l4.329-21.862
		c0.427-2.158,2.144-10.057-4.09-10.031c-7.049,0.028-9.334,3.891-11.1,12.804l-3.78,19.089h-10.431L359.211,275.955
		L359.211,275.955z"/>
</g>
</svg>
